<svg id="Layer_1" style="enable-background:new 0 0 128 128" version="1.1" viewBox="0 0 128 128" xml:space="preserve" xmlns="http://www.w3.org/2000/svg"><path d="M103.39 15.34c-.99-.52-2.18-.44-3.1.19a38.94 38.94 0 0 0-16.38 26.73l-2.87 21.21-.02.09c-.36 1.62.66 3.22 2.28 3.58 2.79.62 4.76 3.14 4.69 6.01-.07 3.22-2.92 5.85-6.34 5.85h-3c-.5 0-1 .03-1.49.08-.09-.18-.17-.37-.26-.56l-2.48-4.82A67.22 67.22 0 0 1 67 43.05V4c0-1.66-1.34-3-3-3s-3 1.34-3 3v39.05c0 10.61-2.56 21.21-7.42 30.64l-2.48 4.82c-.09.18-.17.37-.26.56-.49-.04-.99-.07-1.49-.07h-3c-3.42 0-6.27-2.63-6.35-5.85a6.024 6.024 0 0 1 4.69-6.01 2.999 2.999 0 0 0 2.28-3.58l-2.89-21.3c-1.46-10.79-7.43-20.54-16.38-26.73-.92-.63-2.11-.71-3.1-.19A3.01 3.01 0 0 0 23 18v79c0 1.66 1.34 3 3 3h12c1.66 0 3-1.34 3-3s-1.34-3-3-3h-9V24.43a32.872 32.872 0 0 1 9.14 18.64l2.59 19.15A12.032 12.032 0 0 0 34 73.29C34.16 79.75 39.7 85 46.35 85h2.27c-2.34 8.72-1.05 18.21 3.8 26.02l9.04 14.57c.54.87 1.5 1.41 2.54 1.41s2-.54 2.55-1.42l9.04-14.57c4.84-7.8 6.13-17.29 3.8-26.02h2.27C88.3 85 93.84 79.75 94 73.29c.11-4.76-2.6-9.05-6.73-11.07l2.59-19.15c.95-7.07 4.2-13.61 9.14-18.64V94H89c-1.66 0-3 1.34-3 3s1.34 3 3 3h13c1.66 0 3-1.34 3-3V18a3 3 0 0 0-1.61-2.66zm-44.47 61.1c2.09-4.06 3.79-8.32 5.08-12.7 1.29 4.38 2.99 8.64 5.08 12.7l2.16 4.21c-2.94 1.37-5.45 3.5-7.25 6.17-1.8-2.67-4.31-4.8-7.25-6.17l2.18-4.21zm11.57 31.41L64 118.31l-6.49-10.46c-4.03-6.49-5.06-14.41-3.02-21.64 3.85 1.9 6.51 5.86 6.51 10.44v6c0 1.66 1.34 3 3 3s3-1.34 3-3v-6c0-4.58 2.66-8.53 6.51-10.44 2.04 7.23 1.01 15.15-3.02 21.64z"/></svg>