<svg width="19" height="19" viewBox="0 0 19 19" fill="none" xmlns="http://www.w3.org/2000/svg">
<path fill-rule="evenodd" clip-rule="evenodd" d="M9.77289 2.56952V4.75326L9.65565 4.77029C9.59116 4.77963 9.35987 4.8055 9.14163 4.82775C6.23328 5.1243 3.44346 6.82241 1.75495 9.32394C0.879271 10.6212 0.363699 11.955 0.0973818 13.6121C0.0284128 14.0411 0.0207295 14.2669 0.00720263 16.2634C-0.000949568 17.4637 -0.00239243 18.535 0.00395618 18.6441L0.0154991 18.8425L0.73163 17.175C1.27819 15.9024 1.51352 15.398 1.72526 15.0453C3.31638 12.3952 5.91257 10.6891 9.00759 10.2598C9.23149 10.2288 9.49524 10.2034 9.59375 10.2034H9.77289V12.3707C9.77289 13.6579 9.78623 14.5331 9.80571 14.5259C9.86869 14.5029 18.4301 7.4906 18.4301 7.46207C18.4301 7.44089 11.2329 1.55555 9.94553 0.524077L9.77289 0.385742V2.56952Z" fill="#1C1C1C"/>
</svg>
