<svg width="27" height="26" viewBox="0 0 27 26" fill="none" xmlns="http://www.w3.org/2000/svg">
<path fill-rule="evenodd" clip-rule="evenodd" d="M11.7069 0.0568041C10.1833 0.194798 8.3772 0.736465 6.95815 1.48093C3.11731 3.49594 0.534124 7.30341 0.0740751 11.6275C-0.638142 18.3213 3.85736 24.4308 10.4626 25.7459C17.9669 27.2399 25.1227 21.978 25.93 14.3721C26.3455 10.4575 24.9781 6.58911 22.1949 3.80596C19.4355 1.04653 15.6642 -0.301615 11.7069 0.0568041ZM8.91287 7.44821C8.99703 7.49062 9.95156 8.40767 11.034 9.48607L13.0021 11.4468L14.9701 9.48607C16.0526 8.40767 17.0182 7.48447 17.116 7.43449C17.3421 7.3189 17.8451 7.31321 18.0567 7.42388C18.2527 7.52647 18.4744 7.74812 18.577 7.94421C18.6877 8.15575 18.682 8.65872 18.5664 8.88488C18.5164 8.98265 17.5934 9.94815 16.5151 11.0305L14.5546 12.9982L16.5417 14.992C18.4815 16.9384 18.5307 16.9927 18.6135 17.2788C18.883 18.2106 17.9583 18.9815 17.0906 18.5483C17.0068 18.5065 16.0526 17.5899 14.9701 16.5115L13.0021 14.5508L11.034 16.5115C9.95156 17.5899 8.99733 18.5061 8.91353 18.5476C8.25957 18.8706 7.50581 18.5093 7.35455 17.8002C7.31697 17.6239 7.3252 17.5051 7.39067 17.2788C7.4734 16.9927 7.52267 16.9384 9.46246 14.992L11.4495 12.9982L9.48902 11.0305C8.41077 9.94815 7.49473 8.99408 7.45329 8.91028C7.14495 8.28613 7.4827 7.52134 8.13874 7.35816C8.34885 7.3059 8.7151 7.34851 8.91287 7.44821Z" fill="#F1F2FE"/>
</svg>
