<svg width="27" height="26" viewBox="0 0 27 26" fill="none" xmlns="http://www.w3.org/2000/svg">
<path fill-rule="evenodd" clip-rule="evenodd" d="M11.7157 0.0325401C7.71618 0.474625 4.28499 2.57438 2.08686 5.92499C1.07433 7.46843 0.413538 9.22416 0.114713 11.1651C-0.0126861 11.9925 -0.012076 14.0049 0.115832 14.8254C0.565187 17.7082 1.8097 20.1862 3.8154 22.1919C5.97478 24.3513 8.7884 25.6731 11.8428 25.963C12.6177 26.0366 14.1412 25.9957 14.893 25.8812C17.6952 25.4544 20.199 24.1943 22.1985 22.2046C24.1981 20.2148 25.4511 17.7246 25.8991 14.8508C26.012 14.1261 26.0529 12.5954 25.9798 11.826C25.6876 8.74755 24.3533 5.92382 22.1652 3.75341C20.1798 1.784 17.717 0.549357 14.893 0.107627C14.2694 0.0100698 12.3328 -0.0356841 11.7157 0.0325401ZM17.1553 11.2668L13.6478 14.7746H13.012H12.3763L8.86877 11.2668L5.36122 7.75896H13.012H20.6629L17.1553 11.2668ZM7.17836 15.6006L4.77633 18.0026V13.1986V8.39459L7.17836 10.7966L9.58035 13.1986L7.17836 15.6006ZM21.2478 13.2113V18.0026L18.8458 15.6007L16.4439 13.1988L18.8329 10.8093C20.1469 9.49512 21.2277 8.41986 21.2349 8.41986C21.242 8.41986 21.2478 10.576 21.2478 13.2113ZM11.1325 14.7492L12.0271 15.6388H13.012H13.997L14.9034 14.7374L15.8099 13.836L18.0077 16.0338L20.2054 18.2315H13.0122H5.81896L8.00453 16.0455C9.20659 14.8432 10.2008 13.8595 10.2139 13.8595C10.2271 13.8595 10.6404 14.2598 11.1325 14.7492Z" fill="#4753DC"/>
</svg>
