<svg width="28" height="25" viewBox="0 0 28 25" fill="none" xmlns="http://www.w3.org/2000/svg">
<path fill-rule="evenodd" clip-rule="evenodd" d="M10.1821 0.974349C10.4357 0.542354 10.8711 0.202184 11.3309 0.0767258C11.5434 0.018777 12.3844 0.00683786 16.4214 0.00441119C20.9439 0.00174186 21.2653 0.00703199 21.3804 0.0861898C21.6056 0.240962 27.7903 6.79165 27.8171 6.90376C27.8316 6.96438 27.8375 10.7049 27.8302 15.2161L27.817 23.4182L27.6694 23.7338C27.5037 24.0883 27.1629 24.4626 26.8656 24.6167C26.851 24.6242 26.8371 24.6315 26.8237 24.6386C26.7964 24.653 26.771 24.6665 26.7451 24.679C26.3931 24.849 25.9591 24.849 19.623 24.8493L18.9093 24.8494L18.0075 24.8495C11.7849 24.8503 11.3428 24.8504 11.005 24.6627C10.9792 24.6484 10.954 24.6329 10.9269 24.6163C10.9104 24.6063 10.8933 24.5958 10.8749 24.5848C10.6435 24.4472 10.3274 24.1239 10.1821 23.8765C9.94959 23.4803 9.93359 23.2877 9.93359 20.8843V18.6377V17.667H10.8912V18.6377L10.8923 20.8824C10.8932 22.9551 10.9 23.142 10.9812 23.3232C11.0879 23.5611 11.3128 23.7616 11.5517 23.8316C11.6754 23.8679 13.9346 23.8793 19.0105 23.8693L26.2918 23.855L26.4602 23.7381C26.5528 23.6738 26.6805 23.5443 26.744 23.4505L26.8594 23.2798L26.8718 15.4744L26.8842 7.66918H23.8733C22.2173 7.66918 20.7953 7.65559 20.7134 7.63899C20.6315 7.62239 20.5103 7.55386 20.444 7.48674L20.3237 7.36473V4.16818V0.971582L15.9785 0.97265C11.8564 0.973669 11.6235 0.978329 11.4418 1.06331C11.21 1.17173 11.0641 1.32539 10.9653 1.56524C10.9008 1.72171 10.8912 2.18821 10.8912 5.16816V8.59131V9.56501C10.5651 9.56547 10.2447 9.56611 9.93359 9.56693V8.5865V5.15321C9.93359 1.46512 9.93805 1.39028 10.1821 0.974349ZM26.356 6.67424L23.847 4.03068C22.467 2.57668 21.3144 1.37912 21.2857 1.36941C21.2048 1.34209 21.2123 6.64483 21.2933 6.67623C21.3262 6.68905 22.4787 6.6938 23.8545 6.68686L26.356 6.67424Z" fill="#1C1C1C"/>
<path d="M5.96564 15.2323C5.80592 15.3672 5.5965 15.4737 5.3374 15.5518C5.07829 15.6263 4.79612 15.6636 4.49087 15.6636C4.15013 15.6636 3.86086 15.6192 3.62305 15.5305C3.38524 15.4382 3.20599 15.3122 3.08532 15.1525C2.96464 14.9928 2.9043 14.8082 2.9043 14.5988C2.9043 14.3858 2.96464 14.203 3.08532 14.0504C3.20954 13.8942 3.36927 13.7824 3.56448 13.715C3.40831 13.644 3.28586 13.5375 3.19712 13.3955C3.10839 13.25 3.06402 13.0832 3.06402 12.8951C3.06402 12.6999 3.11903 12.5242 3.22907 12.368C3.34265 12.2118 3.51302 12.0876 3.74018 11.9953C3.96734 11.8995 4.24419 11.8516 4.57073 11.8516C4.80144 11.8516 5.02505 11.8764 5.24157 11.9261C5.46163 11.9758 5.65152 12.0468 5.81124 12.1391L5.65684 12.565C5.3374 12.3946 4.98246 12.3094 4.59203 12.3094C4.26903 12.3094 4.02235 12.368 3.85198 12.4851C3.68161 12.5987 3.59643 12.7478 3.59643 12.9323C3.59643 13.1169 3.66209 13.2589 3.79342 13.3583C3.92474 13.4577 4.11286 13.5073 4.35777 13.5073H5.3161V13.9652H4.33647C4.05607 13.9652 3.83601 14.0149 3.67629 14.1143C3.51657 14.2137 3.4367 14.3628 3.4367 14.5615C3.4367 14.7638 3.52721 14.9218 3.70823 15.0354C3.88925 15.1489 4.159 15.2057 4.51749 15.2057C4.76595 15.2057 5.00198 15.172 5.22559 15.1046C5.45275 15.0336 5.6391 14.9378 5.78462 14.8171L5.96564 15.2323Z" fill="#1C1C1C"/>
<path d="M8.0716 11.8942C8.55432 11.8942 8.9341 12.0095 9.21095 12.2402C9.48781 12.4709 9.62623 12.7886 9.62623 13.1932C9.62623 13.5979 9.48781 13.9155 9.21095 14.1462C8.9341 14.3769 8.55432 14.4923 8.0716 14.4923H7.15054V15.621H6.61813V11.8942H8.0716ZM8.05563 14.0291C8.39282 14.0291 8.65015 13.9581 8.82762 13.8161C9.00509 13.6706 9.09382 13.463 9.09382 13.1932C9.09382 12.9235 9.00509 12.7176 8.82762 12.5756C8.65015 12.4301 8.39282 12.3573 8.05563 12.3573H7.15054V14.0291H8.05563Z" fill="#1C1C1C"/>
<path d="M13.5281 11.8942V15.621H13.017V15.0939C12.765 15.4737 12.3603 15.6636 11.8031 15.6636C11.3594 15.6636 11.0116 15.5287 10.7596 15.259C10.5111 14.9892 10.3869 14.6041 10.3869 14.1036V11.8942H10.9193V14.0877C10.9193 14.4462 11.008 14.7195 11.1855 14.9076C11.3629 15.0957 11.6061 15.1898 11.9149 15.1898C12.2485 15.1898 12.5129 15.0904 12.7082 14.8916C12.9034 14.6928 13.001 14.3982 13.001 14.0078V11.8942H13.5281Z" fill="#1C1C1C"/>
<path d="M17.1535 13.6884C17.37 13.7487 17.5404 13.8587 17.6646 14.0185C17.7888 14.1746 17.8509 14.3734 17.8509 14.6148C17.8509 14.9378 17.7285 15.1862 17.4836 15.3601C17.2422 15.534 16.889 15.621 16.4241 15.621H14.6458V11.8942H16.3176C16.7435 11.8942 17.0718 11.9793 17.3026 12.1497C17.5368 12.3201 17.6539 12.5561 17.6539 12.8578C17.6539 13.053 17.6078 13.2216 17.5155 13.3636C17.4268 13.5056 17.3061 13.6138 17.1535 13.6884ZM15.1782 12.3254V13.518H16.2697C16.543 13.518 16.7524 13.4683 16.8979 13.3689C17.047 13.266 17.1215 13.1169 17.1215 12.9217C17.1215 12.7265 17.047 12.5792 16.8979 12.4798C16.7524 12.3769 16.543 12.3254 16.2697 12.3254H15.1782ZM16.4028 15.1898C16.7045 15.1898 16.9316 15.1401 17.0843 15.0407C17.2369 14.9413 17.3132 14.7851 17.3132 14.5722C17.3132 14.1569 17.0097 13.9492 16.4028 13.9492H15.1782V15.1898H16.4028Z" fill="#1C1C1C"/>
<rect x="1.00317" y="9.02148" width="18.8765" height="8.93827" rx="2.5" stroke="#1C1C1C"/>
</svg>



