<svg width="27" height="26" viewBox="0 0 27 26" fill="none" xmlns="http://www.w3.org/2000/svg">
<path fill-rule="evenodd" clip-rule="evenodd" d="M11.6745 0.0359095C11.4227 0.0630736 10.8785 0.153112 10.4651 0.235978C8.53547 0.622989 6.78436 1.41258 5.15263 2.6314C4.51173 3.11018 3.13058 4.49133 2.65181 5.13223C0.908115 7.46666 0 10.1617 0 13.0021C0 15.8425 0.908115 18.5375 2.65181 20.8719C3.12662 21.5075 4.51005 22.8928 5.13946 23.3628C7.02141 24.7682 8.97158 25.5719 11.3692 25.9305C12.0578 26.0334 14.1167 26.0192 14.8283 25.9066C17.173 25.5355 19.041 24.7533 20.9072 23.3612C21.5292 22.8971 22.9175 21.5088 23.3816 20.8868C24.7736 19.0208 25.5543 17.1566 25.9273 14.8079C26.0525 14.0195 26.0525 11.9847 25.9273 11.1962C25.4715 8.32599 24.3339 6.00204 22.4078 4.00624C21.4192 2.98189 20.4177 2.20797 19.2539 1.5691C17.9525 0.854698 16.4382 0.345397 14.9046 0.106261C14.2623 0.00610023 12.3396 -0.035765 11.6745 0.0359095ZM15.7518 5.93128H16.4816V7.19904V8.4668L15.5278 8.48348C14.1438 8.5077 14.1416 8.50994 14.1416 9.92287V10.8147H15.3427H16.5438L16.5155 10.98C16.4999 11.0709 16.4357 11.6662 16.3728 12.3026L16.2584 13.4599H15.2H14.1416V17.2242V20.9885H12.5647H10.9877V17.2242V13.4599H10.2501H9.51252V12.1373V10.8147H10.2432H10.9739L11.0013 9.65744C11.0235 8.71921 11.0483 8.42656 11.1319 8.11133C11.5433 6.5619 12.701 5.82028 14.5691 5.90961C14.8182 5.92151 15.3504 5.93128 15.7518 5.93128Z" fill="#4753DC"/>
</svg>
