<svg width="31" height="26" viewBox="0 0 31 26" fill="none" xmlns="http://www.w3.org/2000/svg">
<path fill-rule="evenodd" clip-rule="evenodd" d="M12.7315 1.89329C12.985 1.4613 13.4204 1.12113 13.8803 0.995671C14.0928 0.937722 14.9337 0.925783 18.9707 0.923357C23.4932 0.920687 23.8147 0.925977 23.9297 1.00514C24.1549 1.15991 30.3396 7.71059 30.3664 7.8227C30.3809 7.88332 30.3868 11.6239 30.3796 16.135L30.3663 24.3372L30.2187 24.6528C30.053 25.0072 29.7122 25.3816 29.4149 25.5356C29.4003 25.5432 29.3865 25.5505 29.373 25.5576C29.3457 25.572 29.3203 25.5854 29.2944 25.5979C28.9425 25.768 28.5084 25.768 22.1723 25.7683L21.4586 25.7683L20.5569 25.7684C14.3342 25.7693 13.8921 25.7694 13.5544 25.5817C13.5285 25.5673 13.5033 25.5519 13.4762 25.5353C13.4598 25.5252 13.4426 25.5147 13.4242 25.5038C13.1928 25.3661 12.8767 25.0429 12.7315 24.7955C12.4989 24.3992 12.4829 24.2067 12.4829 21.8032V19.5566V18.586H13.4405V19.5566L13.4416 21.8013C13.4425 23.8741 13.4493 24.061 13.5305 24.2421C13.6372 24.4801 13.8621 24.6805 14.101 24.7506C14.2247 24.7868 16.484 24.7982 21.5598 24.7883L28.8412 24.774L29.0096 24.657C29.1022 24.5927 29.2299 24.4633 29.2933 24.3694L29.4087 24.1987L29.4211 16.3934L29.4335 8.58812H26.4226C24.7666 8.58812 23.3446 8.57453 23.2627 8.55793C23.1808 8.54133 23.0596 8.47281 22.9934 8.40568L22.873 8.28367V5.08712V1.89053L18.5278 1.8916C14.4057 1.89261 14.1729 1.89727 13.9911 1.98226C13.7594 2.09068 13.6135 2.24434 13.5146 2.48419C13.4501 2.64066 13.4405 3.10716 13.4405 6.0871V9.51025V10.484C13.1144 10.4844 12.794 10.4851 12.4829 10.4859V9.50545V6.07216C12.4829 2.38406 12.4874 2.30922 12.7315 1.89329ZM28.9053 7.59319L26.3963 4.94963C25.0163 3.49562 23.8637 2.29806 23.835 2.28836C23.7541 2.26103 23.7617 7.56378 23.8426 7.59518C23.8755 7.60799 25.028 7.61275 26.4038 7.60581L28.9053 7.59319Z" fill="#1C1C1C"/>
<path d="M7.17165 12.8131V16.54H6.63924V14.8788H4.49896V16.54H3.96655V12.8131H4.49896V14.4156H6.63924V12.8131H7.17165Z" fill="#1C1C1C"/>
<path d="M10.7469 13.617C10.3848 13.4112 9.99797 13.2887 9.58624 13.2497V16.54H9.05915V13.2497C8.64388 13.2887 8.25522 13.4112 7.89318 13.617L7.70684 13.1964C8.18246 12.9125 8.71841 12.7705 9.31471 12.7705C9.91811 12.7705 10.4576 12.9125 10.9332 13.1964L10.7469 13.617Z" fill="#1C1C1C"/>
<path d="M15.542 12.7705C15.9715 12.7705 16.3069 12.8947 16.5483 13.1432C16.7897 13.3916 16.9103 13.7519 16.9103 14.224V16.54H16.3833V14.24C16.3833 13.9134 16.2981 13.6667 16.1277 13.4999C15.9573 13.3295 15.7319 13.2444 15.4515 13.2444C15.1427 13.2444 14.8978 13.3331 14.7168 13.5106C14.5393 13.6845 14.4506 13.9525 14.4506 14.3145V16.54H13.9235V14.24C13.9235 13.9099 13.8419 13.6614 13.6786 13.4946C13.5189 13.3278 13.2988 13.2444 13.0184 13.2444C12.7061 13.2444 12.4576 13.3331 12.2731 13.5106C12.092 13.688 12.0015 13.956 12.0015 14.3145V16.54H11.4691V12.8131H11.9802V13.3562C12.0903 13.1716 12.2447 13.0278 12.4434 12.9249C12.6458 12.822 12.88 12.7705 13.1462 12.7705C13.4231 12.7705 13.6609 12.8255 13.8596 12.9356C14.062 13.0456 14.211 13.1982 14.3069 13.3934C14.424 13.1947 14.589 13.042 14.802 12.9356C15.0185 12.8255 15.2652 12.7705 15.542 12.7705Z" fill="#1C1C1C"/>
<path d="M17.9994 12.8131H18.5318V16.0768H20.5497V16.54H17.9994V12.8131Z" fill="#1C1C1C"/>
<rect x="1.42285" y="9.94141" width="21.0062" height="8.93827" rx="2.5" stroke="#1C1C1C"/>
</svg>
