<svg width="27" height="26" viewBox="0 0 27 26" fill="none" xmlns="http://www.w3.org/2000/svg">
<path fill-rule="evenodd" clip-rule="evenodd" d="M11.9234 0.0172684C10.5779 0.183917 9.7463 0.359366 8.84276 0.667093C4.20962 2.2451 0.848741 6.28622 0.119394 11.1559C-0.0114775 12.0298 -0.0114775 13.9781 0.119394 14.852C0.539868 17.6593 1.80374 20.1753 3.79717 22.1733C5.84741 24.2283 8.27756 25.4536 11.1943 25.903C12.0337 26.0323 14.0003 26.0323 14.8397 25.903C17.7441 25.4555 20.1766 24.2331 22.2113 22.1983C24.245 20.1646 25.4688 17.7295 25.916 14.8267C26.0456 13.9862 26.0454 12.0201 25.9157 11.1813C25.4653 8.26652 24.2487 5.84574 22.2113 3.81029C20.1964 1.79723 17.6838 0.52716 14.8918 0.110435C14.3673 0.0321626 12.3215 -0.0320491 11.9234 0.0172684ZM16.7926 5.08958C17.5161 5.17087 18.0978 5.33241 18.6674 5.6103C19.7852 6.15566 20.5086 7.07061 20.8691 8.3951L21.0109 8.91587V13.004V17.0921L20.8674 17.6128C20.3267 19.5758 18.9736 20.6734 16.7926 20.9184C16.1763 20.9876 9.8577 20.9876 9.24136 20.9184C8.51785 20.8371 7.93619 20.6755 7.36657 20.3976C6.2481 19.852 5.52271 18.934 5.16598 17.6128L5.02537 17.0921L5.00901 13.1941C4.99125 8.95754 4.9949 8.889 5.28622 8.00452C5.82924 6.35595 7.20992 5.32184 9.17231 5.0939C9.72464 5.02979 16.2271 5.02609 16.7926 5.08958ZM10.2569 6.54864C9.30901 6.57759 9.00738 6.60545 8.67819 6.6943C7.5014 7.01202 6.75653 7.84542 6.52957 9.09815C6.44031 9.59096 6.42365 16.2678 6.51036 16.8022C6.72445 18.1217 7.47572 18.9916 8.67819 19.3123C9.61924 19.5633 16.4147 19.5633 17.3558 19.3123C18.5329 18.9984 19.2767 18.1666 19.5044 16.9098C19.607 16.3434 19.607 9.66449 19.5044 9.09815C19.3313 8.14257 18.8034 7.35886 18.0692 6.96755C17.4898 6.65873 17.0994 6.59264 15.5688 6.54431C13.997 6.49468 11.9685 6.49635 10.2569 6.54864ZM17.7753 8.12596C18.0005 8.29771 18.1468 8.6558 18.1028 8.92717C18.0649 9.16074 17.9385 9.34213 17.6992 9.50638C17.5527 9.60689 17.4711 9.6246 17.2319 9.60788C16.7064 9.57117 16.4214 9.23318 16.4657 8.69923C16.4913 8.38963 16.6558 8.15955 16.9488 8.02337C17.1823 7.91489 17.56 7.96176 17.7753 8.12596ZM14.3189 8.98878C15.0091 9.22141 15.4645 9.50544 15.99 10.031C16.5124 10.5533 16.7961 11.0064 17.0362 11.702C17.2006 12.1782 17.207 12.227 17.207 13.004C17.207 13.7809 17.2006 13.8297 17.0362 14.3059C16.7961 15.0016 16.5124 15.4546 15.99 15.977C15.4641 16.503 14.9857 16.8023 14.3075 17.0299C13.8501 17.1835 13.781 17.1922 13.017 17.1931C12.2388 17.194 12.192 17.1879 11.715 17.0232C11.0194 16.783 10.5663 16.4994 10.044 15.977C9.52159 15.4546 9.23792 15.0016 8.99774 14.3059C8.83333 13.8297 8.82693 13.7809 8.82693 13.004C8.82693 12.227 8.83333 12.1782 8.99774 11.702C9.22048 11.0569 9.50633 10.582 9.958 10.1065C10.3969 9.64444 10.9075 9.29391 11.4466 9.08461C12.0846 8.83682 12.396 8.78558 13.1472 8.80474C13.7445 8.82 13.8824 8.84161 14.3189 8.98878ZM12.6187 10.2999C11.5732 10.4325 10.6489 11.2628 10.3603 12.3283C10.2791 12.6281 10.2791 13.3798 10.3603 13.6796C10.6178 14.6303 11.3894 15.402 12.3413 15.6609C12.4695 15.6958 12.7868 15.7238 13.0465 15.7233C14.286 15.7205 15.3438 14.8977 15.6737 13.6796C15.7549 13.3798 15.7549 12.6281 15.6737 12.3283C15.3052 10.9676 14.03 10.1208 12.6187 10.2999Z" fill="#4753DC"/>
</svg>
