<svg width="30" height="25" viewBox="0 0 30 25" fill="none" xmlns="http://www.w3.org/2000/svg">
<path fill-rule="evenodd" clip-rule="evenodd" d="M11.8303 0.974349C12.0839 0.542354 12.5193 0.202184 12.9791 0.0767258C13.1916 0.018777 14.0326 0.00683786 18.0696 0.00441119C22.5921 0.00174186 22.9135 0.00703199 23.0286 0.0861898C23.2538 0.240962 29.4385 6.79165 29.4653 6.90376C29.4798 6.96438 29.4857 10.7049 29.4784 15.2161L29.4652 23.4182L29.3176 23.7338C29.1519 24.0883 28.8111 24.4626 28.5138 24.6167C28.4992 24.6242 28.4853 24.6315 28.4719 24.6386C28.4446 24.653 28.4191 24.6665 28.3933 24.679C28.0413 24.849 27.6073 24.849 21.2712 24.8493L20.5575 24.8494L19.6557 24.8495C13.433 24.8503 12.991 24.8504 12.6532 24.6627C12.6274 24.6484 12.6022 24.6329 12.5751 24.6163C12.5586 24.6063 12.5415 24.5958 12.5231 24.5848C12.2917 24.4472 11.9756 24.1239 11.8303 23.8765C11.5978 23.4803 11.5818 23.2877 11.5818 20.8843V18.6377V17.667H12.5394V18.6377L12.5405 20.8824C12.5414 22.9551 12.5482 23.142 12.6294 23.3232C12.736 23.5611 12.961 23.7616 13.1999 23.8316C13.3236 23.8679 15.5828 23.8793 20.6586 23.8693L27.94 23.855L28.1084 23.7381C28.201 23.6738 28.3287 23.5443 28.3922 23.4505L28.5076 23.2798L28.52 15.4744L28.5324 7.66918H25.5214C23.8654 7.66918 22.4435 7.65559 22.3616 7.63899C22.2796 7.62239 22.1585 7.55386 22.0922 7.48674L21.9719 7.36473V4.16818V0.971582L17.6267 0.97265C13.5046 0.973669 13.2717 0.978329 13.09 1.06331C12.8582 1.17173 12.7123 1.32539 12.6135 1.56524C12.549 1.72171 12.5394 2.18821 12.5394 5.16816V8.59131V9.56501C12.2133 9.56547 11.8929 9.56611 11.5818 9.56693V8.5865V5.15321C11.5818 1.46512 11.5862 1.39028 11.8303 0.974349ZM28.0041 6.67424L25.4952 4.03068C24.1152 2.57668 22.9626 1.37912 22.9339 1.36941C22.853 1.34209 22.8605 6.64483 22.9414 6.67623C22.9744 6.68905 24.1269 6.6938 25.5027 6.68686L28.0041 6.67424Z" fill="#F1F2FE"/>
<path d="M6.78337 11.8516C7.21284 11.8516 7.54826 11.9758 7.78962 12.2242C8.03098 12.4727 8.15165 12.833 8.15165 13.305V15.621H7.62457V13.321C7.62457 12.9945 7.53939 12.7478 7.36901 12.581C7.19864 12.4106 6.97326 12.3254 6.69286 12.3254C6.38406 12.3254 6.13915 12.4141 5.95814 12.5916C5.78067 12.7655 5.69193 13.0335 5.69193 13.3955V15.621H5.16485V13.321C5.16485 12.9909 5.08321 12.7425 4.91994 12.5756C4.76022 12.4088 4.54016 12.3254 4.25976 12.3254C3.94741 12.3254 3.69895 12.4141 3.51438 12.5916C3.33337 12.7691 3.24286 13.0371 3.24286 13.3955V15.621H2.71045V11.8942H3.22156V12.4372C3.33159 12.2526 3.48599 12.1089 3.68475 12.006C3.88707 11.903 4.12133 11.8516 4.38753 11.8516C4.66438 11.8516 4.90219 11.9066 5.10096 12.0166C5.30327 12.1266 5.45235 12.2793 5.54818 12.4745C5.66531 12.2757 5.83036 12.1231 6.04332 12.0166C6.25983 11.9066 6.50652 11.8516 6.78337 11.8516Z" fill="#F1F2FE"/>
<path d="M10.9232 15.6636C10.5469 15.6636 10.208 15.582 9.90627 15.4187C9.60457 15.2519 9.36676 15.0229 9.19284 14.7319C9.02247 14.4408 8.93729 14.1161 8.93729 13.7576C8.93729 13.3991 9.02247 13.0743 9.19284 12.7833C9.36676 12.4922 9.60457 12.2651 9.90627 12.1018C10.208 11.935 10.5469 11.8516 10.9232 11.8516C11.2959 11.8516 11.633 11.935 11.9347 12.1018C12.2364 12.2651 12.4725 12.4922 12.6428 12.7833C12.8132 13.0708 12.8984 13.3955 12.8984 13.7576C12.8984 14.1196 12.8132 14.4462 12.6428 14.7372C12.4725 15.0247 12.2364 15.2519 11.9347 15.4187C11.633 15.582 11.2959 15.6636 10.9232 15.6636ZM10.9232 15.1898C11.1965 15.1898 11.4414 15.1276 11.6579 15.0034C11.878 14.8792 12.0501 14.7088 12.1743 14.4923C12.3021 14.2722 12.366 14.0273 12.366 13.7576C12.366 13.4878 12.3021 13.2447 12.1743 13.0282C12.0501 12.8081 11.878 12.636 11.6579 12.5117C11.4414 12.3875 11.1965 12.3254 10.9232 12.3254C10.6499 12.3254 10.4014 12.3875 10.1778 12.5117C9.95774 12.636 9.78382 12.8081 9.65604 13.0282C9.53181 13.2447 9.4697 13.4878 9.4697 13.7576C9.4697 14.0273 9.53181 14.2722 9.65604 14.4923C9.78382 14.7088 9.95774 14.8792 10.1778 15.0034C10.4014 15.1276 10.6499 15.1898 10.9232 15.1898Z" fill="#F1F2FE"/>
<path d="M16.2198 13.6884C16.4363 13.7487 16.6067 13.8587 16.7309 14.0185C16.8551 14.1746 16.9172 14.3734 16.9172 14.6148C16.9172 14.9378 16.7948 15.1862 16.5499 15.3601C16.3085 15.534 15.9554 15.621 15.4904 15.621H13.7122V11.8942H15.3839C15.8098 11.8942 16.1382 11.9793 16.3689 12.1497C16.6031 12.3201 16.7203 12.5561 16.7203 12.8578C16.7203 13.053 16.6741 13.2216 16.5818 13.3636C16.4931 13.5056 16.3724 13.6138 16.2198 13.6884ZM14.2446 12.3254V13.518H15.336C15.6093 13.518 15.8187 13.4683 15.9642 13.3689C16.1133 13.266 16.1878 13.1169 16.1878 12.9217C16.1878 12.7265 16.1133 12.5792 15.9642 12.4798C15.8187 12.3769 15.6093 12.3254 15.336 12.3254H14.2446ZM15.4691 15.1898C15.7708 15.1898 15.998 15.1401 16.1506 15.0407C16.3032 14.9413 16.3795 14.7851 16.3795 14.5722C16.3795 14.1569 16.076 13.9492 15.4691 13.9492H14.2446V15.1898H15.4691Z" fill="#F1F2FE"/>
<path d="M18.6627 12.3573V15.1578H19.3814V15.621H17.4115V15.1578H18.1303V12.3573H17.4115V11.8942H19.3814V12.3573H18.6627Z" fill="#F1F2FE"/>
<rect x="0.521729" y="9.02148" width="21.0062" height="8.93827" rx="2.5" stroke="#F1F2FE"/>
</svg>
