<svg width="31" height="25" viewBox="0 0 31 25" fill="none" xmlns="http://www.w3.org/2000/svg">
<path fill-rule="evenodd" clip-rule="evenodd" d="M12.6821 0.973372C12.9357 0.541377 13.3711 0.201208 13.8309 0.0757492C14.0434 0.0178005 14.8844 0.00586129 18.9214 0.00343463C23.4439 0.000765299 23.7653 0.00605542 23.8804 0.0852132C24.1056 0.239986 30.2903 6.79067 30.3171 6.90278C30.3316 6.9634 30.3375 10.704 30.3302 15.2151L30.317 23.4172L30.1694 23.7329C30.0037 24.0873 29.6629 24.4616 29.3656 24.6157C29.351 24.6232 29.3371 24.6306 29.3237 24.6376C29.2964 24.6521 29.271 24.6655 29.2451 24.678C28.8931 24.848 28.4591 24.848 22.123 24.8484L21.4093 24.8484L20.5075 24.8485C14.2849 24.8494 13.8428 24.8494 13.505 24.6618C13.4792 24.6474 13.454 24.632 13.4269 24.6153C13.4104 24.6053 13.3933 24.5948 13.3749 24.5838C13.1435 24.4462 12.8274 24.123 12.6821 23.8755C12.4496 23.4793 12.4336 23.2867 12.4336 20.8833V18.6367V17.6661H13.3912V18.6367L13.3923 20.8814C13.3932 22.9541 13.4 23.141 13.4812 23.3222C13.5879 23.5601 13.8128 23.7606 14.0517 23.8307C14.1754 23.8669 16.4346 23.8783 21.5105 23.8684L28.7918 23.854L28.9602 23.7371C29.0528 23.6728 29.1805 23.5433 29.244 23.4495L29.3594 23.2788L29.3718 15.4735L29.3842 7.6682H26.3733C24.7173 7.6682 23.2953 7.65461 23.2134 7.63801C23.1315 7.62141 23.0103 7.55288 22.944 7.48576L22.8237 7.36375V4.1672V0.970606L18.4785 0.971674C14.3564 0.972693 14.1235 0.977352 13.9418 1.06233C13.71 1.17076 13.5641 1.32441 13.4653 1.56426C13.4008 1.72074 13.3912 2.18724 13.3912 5.16718V8.59033V9.56403C13.0651 9.5645 12.7447 9.56514 12.4336 9.56595V8.58553V5.15223C12.4336 1.46414 12.438 1.3893 12.6821 0.973372ZM28.856 6.67327L26.347 4.02971C24.967 2.5757 23.8144 1.37814 23.7857 1.36843C23.7048 1.34111 23.7123 6.64386 23.7933 6.67526C23.8262 6.68807 24.9787 6.69283 26.3545 6.68588L28.856 6.67327Z" fill="#1C1C1C"/>
<path d="M7.63517 11.8506C8.06465 11.8506 8.40007 11.9748 8.64142 12.2233C8.88278 12.4717 9.00346 12.832 9.00346 13.3041V15.62H8.47638V13.32C8.47638 12.9935 8.39119 12.7468 8.22082 12.58C8.05045 12.4096 7.82507 12.3244 7.54466 12.3244C7.23587 12.3244 6.99096 12.4132 6.80994 12.5906C6.63247 12.7646 6.54374 13.0325 6.54374 13.3946V15.62H6.01665V13.32C6.01665 12.9899 5.93502 12.7415 5.77175 12.5747C5.61202 12.4078 5.39196 12.3244 5.11156 12.3244C4.79922 12.3244 4.55076 12.4132 4.36619 12.5906C4.18517 12.7681 4.09466 13.0361 4.09466 13.3946V15.62H3.56226V11.8932H4.07337V12.4362C4.1834 12.2517 4.3378 12.1079 4.53656 12.005C4.73888 11.9021 4.97314 11.8506 5.23934 11.8506C5.51619 11.8506 5.754 11.9056 5.95277 12.0156C6.15508 12.1257 6.30415 12.2783 6.39999 12.4735C6.51712 12.2747 6.68216 12.1221 6.89513 12.0156C7.11164 11.9056 7.35832 11.8506 7.63517 11.8506Z" fill="#1C1C1C"/>
<path d="M11.775 15.6626C11.3987 15.6626 11.0598 15.581 10.7581 15.4177C10.4564 15.2509 10.2186 15.022 10.0446 14.7309C9.87428 14.4399 9.78909 14.1151 9.78909 13.7566C9.78909 13.3981 9.87428 13.0733 10.0446 12.7823C10.2186 12.4912 10.4564 12.2641 10.7581 12.1008C11.0598 11.934 11.3987 11.8506 11.775 11.8506C12.1477 11.8506 12.4849 11.934 12.7865 12.1008C13.0882 12.2641 13.3243 12.4912 13.4947 12.7823C13.665 13.0698 13.7502 13.3946 13.7502 13.7566C13.7502 14.1186 13.665 14.4452 13.4947 14.7362C13.3243 15.0237 13.0882 15.2509 12.7865 15.4177C12.4849 15.581 12.1477 15.6626 11.775 15.6626ZM11.775 15.1888C12.0483 15.1888 12.2932 15.1267 12.5097 15.0024C12.7298 14.8782 12.9019 14.7078 13.0261 14.4913C13.1539 14.2713 13.2178 14.0264 13.2178 13.7566C13.2178 13.4869 13.1539 13.2437 13.0261 13.0272C12.9019 12.8071 12.7298 12.635 12.5097 12.5108C12.2932 12.3865 12.0483 12.3244 11.775 12.3244C11.5017 12.3244 11.2532 12.3865 11.0296 12.5108C10.8095 12.635 10.6356 12.8071 10.5078 13.0272C10.3836 13.2437 10.3215 13.4869 10.3215 13.7566C10.3215 14.0264 10.3836 14.2713 10.5078 14.4913C10.6356 14.7078 10.8095 14.8782 11.0296 15.0024C11.2532 15.1267 11.5017 15.1888 11.775 15.1888Z" fill="#1C1C1C"/>
<path d="M17.0716 13.6874C17.2881 13.7477 17.4585 13.8578 17.5827 14.0175C17.7069 14.1737 17.7691 14.3724 17.7691 14.6138C17.7691 14.9368 17.6466 15.1852 17.4017 15.3592C17.1603 15.5331 16.8072 15.62 16.3422 15.62H14.564V11.8932H16.2357C16.6616 11.8932 16.99 11.9784 17.2207 12.1487C17.4549 12.3191 17.5721 12.5551 17.5721 12.8568C17.5721 13.0521 17.5259 13.2206 17.4336 13.3626C17.3449 13.5046 17.2242 13.6129 17.0716 13.6874ZM15.0964 12.3244V13.517H16.1878C16.4611 13.517 16.6705 13.4673 16.816 13.3679C16.9651 13.265 17.0397 13.1159 17.0397 12.9207C17.0397 12.7255 16.9651 12.5782 16.816 12.4788C16.6705 12.3759 16.4611 12.3244 16.1878 12.3244H15.0964ZM16.3209 15.1888C16.6226 15.1888 16.8498 15.1391 17.0024 15.0397C17.155 14.9403 17.2313 14.7842 17.2313 14.5712C17.2313 14.1559 16.9278 13.9483 16.3209 13.9483H15.0964V15.1888H16.3209Z" fill="#1C1C1C"/>
<path d="M19.5145 12.3564V15.1568H20.2332V15.62H18.2633V15.1568H18.9821V12.3564H18.2633V11.8932H20.2332V12.3564H19.5145Z" fill="#1C1C1C"/>
<rect x="1.37354" y="9.02148" width="21.0062" height="8.93827" rx="2.5" stroke="#1C1C1C"/>
</svg>
