<svg width="19" height="9" viewBox="0 0 19 9" fill="none" xmlns="http://www.w3.org/2000/svg">
<path fill-rule="evenodd" clip-rule="evenodd" d="M2.69167 0.0286121C2.50343 0.0706671 2.30483 0.191906 2.25738 0.29374C2.23228 0.347673 2.22326 1.46902 2.23053 3.63376L2.24149 6.89259L2.33 6.97268C2.5094 7.13498 2.62179 7.16021 3.24996 7.17915C4.81436 7.22636 5.95186 7.39007 7.06816 7.72863C7.78072 7.94475 8.28359 8.15871 8.82247 8.47503L8.98026 8.56763L8.97863 5.23091C8.97733 2.586 8.96719 1.87714 8.92966 1.81205C8.80858 1.60216 8.09293 1.09472 7.58127 0.855969C6.63506 0.41445 5.35554 0.126855 3.96795 0.0437814C3.21577 -0.00124299 2.84504 -0.00563955 2.69167 0.0286121ZM15.4515 0.019819C13.843 0.0833964 12.46 0.370139 11.4188 0.855969C10.9072 1.09472 10.1915 1.60216 10.0705 1.81205C10.0329 1.87714 10.0228 2.58517 10.0215 5.22649L10.0199 8.5588L10.3819 8.36134C10.862 8.09951 11.3016 7.92008 11.932 7.72874C13.0475 7.39016 14.1853 7.22639 15.7502 7.17915C16.3783 7.16021 16.4907 7.13498 16.6701 6.97268L16.7586 6.89259L16.7696 3.63376C16.7771 1.40176 16.7682 0.348548 16.7415 0.291162C16.6929 0.186957 16.4588 0.0524364 16.2693 0.019819C16.1158 -0.00660634 16.1199 -0.00660634 15.4515 0.019819ZM0.385076 1.50454C0.213877 1.55974 0.113965 1.62737 0.0509586 1.73077C-0.000204062 1.81472 -0.00543914 2.20608 0.00362015 5.27971L0.0137933 8.73429L0.118384 8.8193C0.353702 9.01058 0.531101 9.03553 1.12764 8.96134C2.39809 8.8033 3.23537 8.74021 4.48775 8.70812C5.44525 8.6836 6.93706 8.75864 7.69477 8.86941C8.0303 8.91848 8.03966 8.91328 7.82305 8.79791C6.73345 8.21771 5.15706 7.88511 3.24324 7.83168C2.62083 7.81433 2.31055 7.77287 2.03728 7.6706C1.79439 7.5797 1.52636 7.41233 1.39415 7.26902C1.17617 7.03275 1.18333 7.13767 1.18333 4.17969V1.46833L0.839897 1.46847C0.601459 1.46856 0.462414 1.47959 0.385076 1.50454ZM17.8168 4.1776C17.8168 7.13786 17.8239 7.03275 17.606 7.26902C17.4738 7.41233 17.2057 7.5797 16.9628 7.6706C16.6896 7.77287 16.3793 7.81433 15.7569 7.83168C13.8431 7.88511 12.2667 8.21771 11.1771 8.79791C10.9605 8.91328 10.9698 8.91848 11.3053 8.86941C12.0631 8.75864 13.5549 8.6836 14.5124 8.70812C15.7647 8.74021 16.602 8.8033 17.8725 8.96134C18.469 9.03553 18.6464 9.01058 18.8817 8.8193L18.9863 8.73429L18.996 5.27202C19.0053 1.91941 19.0034 1.80664 18.9354 1.71136C18.8968 1.65725 18.8019 1.58301 18.7246 1.54641C18.594 1.48458 18.5566 1.47929 18.2004 1.47199L17.8168 1.46414V4.1776Z" fill="white"/>
</svg>
