<svg width="60" height="47" viewBox="0 0 60 47" fill="none" xmlns="http://www.w3.org/2000/svg">
<path id="open-book 1 (Traced)" fill-rule="evenodd" clip-rule="evenodd" d="M8.5 0.149419C7.90556 0.369039 7.2784 1.00218 7.12856 1.53398C7.0493 1.81562 7.02081 7.67157 7.04379 18.9763L7.07838 35.9947L7.3579 36.4129C7.92444 37.2605 8.27934 37.3922 10.263 37.4911C15.2032 37.7377 18.7953 38.5926 22.3205 40.3606C24.5707 41.4893 26.1587 42.6066 27.8604 44.2585L28.3587 44.7421L28.3536 27.317C28.3495 13.5047 28.3174 9.80286 28.1989 9.46291C27.8166 8.36685 25.5566 5.71686 23.9409 4.47006C20.9528 2.16435 16.9122 0.662467 12.5304 0.228636C10.1551 -0.00649119 8.98435 -0.029451 8.5 0.149419ZM48.7942 0.103499C43.7147 0.435514 39.3475 1.93295 36.0595 4.47006C34.4437 5.71686 32.1838 8.36685 31.8014 9.46291C31.6829 9.80286 31.6509 13.5003 31.6468 27.2939L31.6416 44.6959L32.7848 43.6648C34.3009 42.2974 35.6894 41.3604 37.6799 40.3612C41.2025 38.5931 44.7958 37.7378 49.7373 37.4911C51.721 37.3922 52.0759 37.2605 52.6425 36.4129L52.922 35.9947L52.9566 18.9763C52.9803 7.32032 52.9523 1.82019 52.8678 1.52051C52.7143 0.976331 51.9752 0.273834 51.3768 0.103499C50.8918 -0.0344998 50.9049 -0.0344998 48.7942 0.103499ZM1.21603 7.85705C0.675402 8.14531 0.35989 8.49848 0.160922 9.03846C-0.000644407 9.47685 -0.0171762 11.5206 0.011432 27.5718L0.0435577 45.6124L0.373843 46.0563C1.11695 47.0553 1.67716 47.1856 3.56097 46.7981C7.57293 45.9728 10.217 45.6433 14.1718 45.4757C17.1955 45.3477 21.9065 45.7396 24.2993 46.318C25.3588 46.5743 25.3884 46.5471 24.7044 45.9447C21.2635 42.9147 16.2854 41.1778 10.2418 40.8988C8.27629 40.8082 7.29646 40.5917 6.43352 40.0576C5.66649 39.5829 4.82009 38.7088 4.40257 37.9604C3.71421 36.7266 3.73684 37.2745 3.73684 21.8273V7.66796L2.6523 7.66868C1.89934 7.66916 1.46025 7.72674 1.21603 7.85705ZM56.2635 21.8163C56.2635 37.2755 56.2861 36.7266 55.5978 37.9604C55.1803 38.7088 54.3339 39.5829 53.5668 40.0576C52.7039 40.5917 51.7241 40.8082 49.7585 40.8988C43.7149 41.1778 38.7368 42.9147 35.296 45.9447C34.612 46.5471 34.6415 46.5743 35.7011 46.318C38.0939 45.7396 42.8048 45.3477 45.8285 45.4757C49.7834 45.6433 52.4274 45.9728 56.4394 46.7981C58.3232 47.1856 58.8834 47.0553 59.6265 46.0563L59.9568 45.6124L59.9873 27.5316C60.0167 10.0236 60.0106 9.43466 59.7959 8.93712C59.6741 8.65451 59.3744 8.26684 59.1302 8.07571C58.7179 7.75283 58.5997 7.72518 57.4748 7.68707L56.2635 7.64608V21.8163Z" fill="white"/>
</svg>
