<svg width="182" height="101" viewBox="0 0 182 101" fill="none" xmlns="http://www.w3.org/2000/svg">
<g id="Group 78">
<path id="Vector 2" d="M0 50L181 50" stroke="#FFDC75" stroke-width="20"/>
<g id="logo">
<g id="&#208;&#160;&#208;&#163;&#208;&#165;">
<path d="M87.7533 7.87354C92.7787 7.87354 96.6931 9.1048 99.4963 11.5673C102.334 14.0299 103.753 17.4843 103.753 21.9305C103.753 26.1374 102.471 29.4378 99.9066 31.832C97.3768 34.2261 93.8214 35.4232 89.2404 35.4232C87.7362 35.4232 86.2662 35.2693 84.8304 34.9614C83.4287 34.6536 81.9074 34.1406 80.2665 33.4224V44.1447H72.0618V22.9053C72.0618 18.0828 73.395 14.3719 76.0616 11.7726C78.7623 9.17321 82.6595 7.87354 87.7533 7.87354ZM87.8046 29.1642C90.2318 29.1642 92.095 28.5486 93.3941 27.3173C94.7273 26.0861 95.394 24.3418 95.394 22.0844C95.394 19.7929 94.7273 18.0144 93.3941 16.7489C92.095 15.4835 90.2831 14.8507 87.9584 14.8507C85.5312 14.8507 83.6339 15.5519 82.2664 16.9541C80.9331 18.3564 80.2665 20.323 80.2665 22.854V26.8556C81.2921 27.5738 82.4544 28.1382 83.7535 28.5486C85.0868 28.959 86.4371 29.1642 87.8046 29.1642Z" fill="#1C1C1C"/>
<path d="M141.783 8.23265V32.9093C141.783 38.3132 140.279 42.4517 137.271 45.3246C134.262 48.2318 130.108 49.6854 124.81 49.6854C121.767 49.6854 118.981 49.2578 116.451 48.4028C113.921 47.5819 111.768 46.402 109.99 44.8629L113.22 38.7066C116.468 41.3401 120.263 42.6569 124.604 42.6569C127.613 42.6569 129.835 41.9044 131.271 40.3995C132.741 38.8605 133.476 36.5005 133.476 33.3198V31.1137C131.083 34.0551 127.698 35.5258 123.322 35.5258C118.776 35.5258 115.272 34.2432 112.81 31.6781C110.383 29.0787 109.169 25.3507 109.169 20.494V8.23265H117.477V19.981C117.477 22.7856 118.143 24.9061 119.477 26.3426C120.81 27.779 122.69 28.4973 125.117 28.4973C127.681 28.4973 129.715 27.7448 131.22 26.24C132.724 24.7351 133.476 22.4606 133.476 19.4167V8.23265H141.783Z" fill="#1C1C1C"/>
<path d="M156.161 8.23265L163.597 19.1089L171.033 8.23265H180.776L168.827 25.4191L181.75 44.1447H171.956L163.597 32.2424L155.341 44.1447H145.752L158.572 25.7782L146.572 8.23265H156.161Z" fill="#1C1C1C"/>
</g>
<g id="&#208;&#183;&#208;&#176; &#208;&#189;&#208;&#176;&#209;&#128;&#208;&#190;&#208;&#180;&#208;&#189;&#208;&#184;&#208;&#185; &#208;&#179;&#208;&#181;&#209;&#130;&#209;&#140;&#208;&#188;&#208;&#176;&#208;&#189;&#208;&#176;&#209;&#130;">
<path d="M78.32 59.636C78.872 59.8261 79.3019 60.1247 79.6096 60.532C79.9264 60.9302 80.0848 61.3963 80.0848 61.9302C80.0848 62.5094 79.8947 63.0117 79.5146 63.4371C79.1345 63.8624 78.6186 64.1883 77.967 64.4145C77.3244 64.6408 76.6185 64.7539 75.8493 64.7539C75.1977 64.7539 74.546 64.6724 73.8944 64.5095C73.2519 64.3466 72.641 64.0977 72.0618 63.7629L72.7405 62.1882C73.1568 62.4416 73.6139 62.6361 74.1116 62.7719C74.6184 62.8986 75.1117 62.962 75.5913 62.962C76.243 62.962 76.7814 62.8443 77.2068 62.609C77.6412 62.3737 77.8584 62.0434 77.8584 61.618C77.8584 61.265 77.7091 60.9981 77.4104 60.8171C77.1208 60.6361 76.7226 60.5456 76.2158 60.5456H73.8944V58.8894H76.0529C76.4964 58.8894 76.8403 58.7989 77.0846 58.6179C77.338 58.4369 77.4647 58.188 77.4647 57.8712C77.4647 57.5002 77.2837 57.2106 76.9217 57.0024C76.5688 56.7943 76.1117 56.6902 75.5506 56.6902C75.1343 56.6902 74.7044 56.749 74.261 56.8667C73.8175 56.9753 73.3967 57.1427 72.9985 57.3689L72.3333 55.6585C73.3378 55.1426 74.4239 54.8847 75.5913 54.8847C76.3335 54.8847 77.0167 54.9933 77.6412 55.2105C78.2657 55.4277 78.7634 55.7444 79.1345 56.1607C79.5055 56.577 79.6911 57.0612 79.6911 57.6133C79.6911 58.0658 79.5689 58.4685 79.3245 58.8215C79.0802 59.1745 78.7453 59.446 78.32 59.636Z" fill="#1C1C1C"/>
<path d="M86.0477 54.9254C86.9256 54.9254 87.6903 55.0973 88.3419 55.4413C88.9935 55.7852 89.5003 56.292 89.8623 56.9617C90.2243 57.6314 90.4053 58.4414 90.4053 59.3917V64.591H88.2062V62.3103H83.8621V64.591H81.69V59.3917C81.69 58.4414 81.871 57.6314 82.233 56.9617C82.595 56.292 83.1019 55.7852 83.7535 55.4413C84.4051 55.0973 85.1698 54.9254 86.0477 54.9254ZM88.2062 60.5456V59.188C88.2062 58.4007 88.0116 57.8079 87.6224 57.4097C87.2333 57.0024 86.7038 56.7988 86.0341 56.7988C85.3554 56.7988 84.8214 57.0024 84.4322 57.4097C84.0521 57.8079 83.8621 58.4007 83.8621 59.188V60.5456H88.2062Z" fill="#1C1C1C"/>
<path d="M105.19 55.0883V64.591H102.991V60.6949H98.6741V64.591H96.4749V55.0883H98.6741V58.8351H102.991V55.0883H105.19Z" fill="#1C1C1C"/>
<path d="M111.793 54.9254C112.671 54.9254 113.436 55.0973 114.087 55.4413C114.739 55.7852 115.246 56.292 115.608 56.9617C115.97 57.6314 116.151 58.4414 116.151 59.3917V64.591H113.951V62.3103H109.607V64.591H107.435V59.3917C107.435 58.4414 107.616 57.6314 107.978 56.9617C108.34 56.292 108.847 55.7852 109.499 55.4413C110.15 55.0973 110.915 54.9254 111.793 54.9254ZM113.951 60.5456V59.188C113.951 58.4007 113.757 57.8079 113.368 57.4097C112.979 57.0024 112.449 56.7988 111.779 56.7988C111.101 56.7988 110.567 57.0024 110.178 57.4097C109.797 57.8079 109.607 58.4007 109.607 59.188V60.5456H113.951Z" fill="#1C1C1C"/>
<path d="M122.326 54.9933C123.656 54.9933 124.693 55.3191 125.435 55.9707C126.186 56.6223 126.561 57.5364 126.561 58.7129C126.561 59.8261 126.222 60.6994 125.543 61.3329C124.874 61.9664 123.932 62.2832 122.72 62.2832C122.321 62.2832 121.932 62.2425 121.552 62.161C121.181 62.0796 120.778 61.9438 120.344 61.7538V64.591H118.172V58.9708C118.172 57.6947 118.525 56.7128 119.231 56.025C119.946 55.3372 120.978 54.9933 122.326 54.9933ZM122.34 60.627C122.982 60.627 123.475 60.4641 123.819 60.1383C124.172 59.8125 124.349 59.3509 124.349 58.7536C124.349 58.1473 124.172 57.6766 123.819 57.3418C123.475 57.0069 122.996 56.8395 122.38 56.8395C121.738 56.8395 121.235 57.025 120.873 57.3961C120.52 57.7671 120.344 58.2875 120.344 58.9572V60.0161C120.616 60.2062 120.923 60.3555 121.267 60.4641C121.62 60.5727 121.978 60.627 122.34 60.627Z" fill="#1C1C1C"/>
<path d="M132.733 64.7539C131.747 64.7539 130.855 64.5412 130.059 64.1158C129.272 63.6905 128.652 63.1068 128.199 62.3646C127.756 61.6135 127.534 60.7718 127.534 59.8396C127.534 58.9075 127.756 58.0703 128.199 57.3282C128.652 56.577 129.272 55.9888 130.059 55.5634C130.855 55.1381 131.747 54.9254 132.733 54.9254C133.72 54.9254 134.607 55.1381 135.394 55.5634C136.181 55.9888 136.801 56.577 137.254 57.3282C137.706 58.0703 137.933 58.9075 137.933 59.8396C137.933 60.7718 137.706 61.6135 137.254 62.3646C136.801 63.1068 136.181 63.6905 135.394 64.1158C134.607 64.5412 133.72 64.7539 132.733 64.7539ZM132.733 62.8805C133.294 62.8805 133.801 62.7538 134.254 62.5004C134.706 62.2379 135.059 61.8759 135.313 61.4144C135.575 60.9528 135.706 60.4279 135.706 59.8396C135.706 59.2514 135.575 58.7265 135.313 58.2649C135.059 57.8033 134.706 57.4459 134.254 57.1925C133.801 56.93 133.294 56.7988 132.733 56.7988C132.172 56.7988 131.665 56.93 131.213 57.1925C130.76 57.4459 130.403 57.8033 130.14 58.2649C129.887 58.7265 129.76 59.2514 129.76 59.8396C129.76 60.4279 129.887 60.9528 130.14 61.4144C130.403 61.8759 130.76 62.2379 131.213 62.5004C131.665 62.7538 132.172 62.8805 132.733 62.8805Z" fill="#1C1C1C"/>
<path d="M149.781 62.799V66.5594H147.745V64.591H140.794V66.5594H138.758L138.771 62.799H139.912V59.2423C139.912 58.3283 140.093 57.5499 140.455 56.9074C140.817 56.2558 141.324 55.7625 141.975 55.4277C142.636 55.0928 143.401 54.9254 144.269 54.9254C145.138 54.9254 145.899 55.0928 146.55 55.4277C147.211 55.7625 147.722 56.2558 148.084 56.9074C148.446 57.5499 148.627 58.3283 148.627 59.2423V62.799H149.781ZM146.414 62.799V59.0523C146.414 58.3102 146.224 57.749 145.844 57.3689C145.473 56.9888 144.948 56.7988 144.269 56.7988C143.6 56.7988 143.07 56.9888 142.681 57.3689C142.301 57.749 142.111 58.3102 142.111 59.0523V62.799H146.414Z" fill="#1C1C1C"/>
<path d="M159.995 55.0883V64.591H157.796V60.6949H153.479V64.591H151.28V55.0883H153.479V58.8351H157.796V55.0883H159.995Z" fill="#1C1C1C"/>
<path d="M170.82 55.0883V64.591H168.688V63.4371C168.037 64.315 167.077 64.7539 165.81 64.7539C164.688 64.7539 163.81 64.4009 163.177 63.695C162.552 62.9801 162.24 61.9664 162.24 60.6542V55.0883H164.439V60.5863C164.439 61.3465 164.616 61.9212 164.969 62.3103C165.331 62.6904 165.82 62.8805 166.435 62.8805C167.096 62.8805 167.625 62.6769 168.023 62.2696C168.421 61.8533 168.621 61.2424 168.621 60.437V55.0883H170.82Z" fill="#1C1C1C"/>
<path d="M181.571 55.0883V64.591H179.44V63.4371C178.788 64.315 177.829 64.7539 176.562 64.7539C175.44 64.7539 174.562 64.4009 173.928 63.695C173.304 62.9801 172.992 61.9664 172.992 60.6542V55.0883H175.191V60.5863C175.191 61.3465 175.367 61.9212 175.72 62.3103C176.082 62.6904 176.571 62.8805 177.186 62.8805C177.847 62.8805 178.377 62.6769 178.775 62.2696C179.173 61.8533 179.372 61.2424 179.372 60.437V55.0883H181.571ZM177.349 54.4774C175.612 54.4774 174.734 53.7851 174.716 52.4004H176.223C176.241 53.0611 176.616 53.3914 177.349 53.3914C177.711 53.3914 177.987 53.3099 178.177 53.147C178.367 52.9751 178.467 52.7262 178.476 52.4004H179.983C179.974 53.0792 179.752 53.595 179.318 53.948C178.883 54.3009 178.227 54.4774 177.349 54.4774Z" fill="#1C1C1C"/>
</g>
<g id="&#208;&#183;&#208;&#176; &#208;&#189;&#208;&#176;&#209;&#128;&#208;&#190;&#208;&#180;&#208;&#189;&#208;&#184;&#208;&#185; &#208;&#179;&#208;&#181;&#209;&#130;&#209;&#140;&#208;&#188;&#208;&#176;&#208;&#189;&#208;&#176;&#209;&#130;_2">
<path d="M80.2366 71.6568H74.7149L74.7315 81.2155H72.0618V69.4353H80.2532L80.2366 71.6568Z" fill="#1C1C1C"/>
<path d="M91.3095 80.2058C90.7568 80.5873 90.0604 80.8846 89.2202 81.0977C88.3911 81.3109 87.5068 81.4175 86.5671 81.4175C85.3954 81.4175 84.4004 81.2716 83.5824 80.9799C82.7644 80.677 82.1453 80.2619 81.7252 79.7346C81.3052 79.1961 81.0951 78.5846 81.0951 77.9003C81.0951 77.272 81.2665 76.7166 81.6092 76.2342C81.9518 75.7518 82.4217 75.3928 83.0186 75.1572C82.5654 74.9103 82.2116 74.5738 81.9574 74.1474C81.7142 73.7211 81.5926 73.2443 81.5926 72.717C81.5926 72.0775 81.786 71.4941 82.1729 70.9668C82.5599 70.4395 83.1457 70.0187 83.9306 69.7046C84.7155 69.3905 85.6772 69.2334 86.8159 69.2334C87.5676 69.2334 88.3027 69.3119 89.0212 69.469C89.7398 69.6149 90.3644 69.8168 90.895 70.0748L90.1488 72.1616C89.1318 71.6792 88.054 71.438 86.9153 71.438C86.0531 71.438 85.4009 71.5726 84.9587 71.8419C84.5276 72.0999 84.312 72.4533 84.312 72.9021C84.312 73.3172 84.4557 73.6369 84.7431 73.8613C85.0416 74.0745 85.4893 74.1811 86.0863 74.1811H89.2534V76.3352H85.9204C85.2461 76.3352 84.7266 76.453 84.3618 76.6886C83.997 76.9242 83.8146 77.2664 83.8146 77.7151C83.8146 78.1863 84.0467 78.5566 84.511 78.8258C84.9863 79.0839 85.7104 79.2129 86.6832 79.2129C87.3686 79.2129 88.054 79.1231 88.7394 78.9436C89.4247 78.7529 90.0051 78.4893 90.4804 78.1527L91.3095 80.2058Z" fill="#1C1C1C"/>
<path d="M101.576 72.7338C100.581 72.1504 99.5142 71.7746 98.3756 71.6063V81.2155H95.6894V71.6063C94.5507 71.7746 93.4784 72.1504 92.4725 72.7338L91.5605 70.6975C92.3564 70.2151 93.2187 69.8505 94.1472 69.6036C95.0758 69.3568 96.0321 69.2334 97.0159 69.2334C98.0108 69.2334 98.9726 69.3568 99.9011 69.6036C100.841 69.8505 101.703 70.2151 102.488 70.6975L101.576 72.7338Z" fill="#1C1C1C"/>
<path d="M109.614 72.9862C111.007 72.9862 112.107 73.3509 112.913 74.0801C113.732 74.8094 114.141 75.8303 114.141 77.143C114.141 78.5117 113.687 79.5719 112.781 80.3236C111.874 81.0753 110.587 81.4511 108.917 81.4511C107.27 81.4511 106.021 81.0753 105.17 80.3236C104.319 79.5719 103.893 78.4668 103.893 77.0083V69.4353H106.546V73.6762C107.596 73.2162 108.619 72.9862 109.614 72.9862ZM109.033 79.3307C109.796 79.3307 110.388 79.1456 110.808 78.7754C111.228 78.4051 111.438 77.889 111.438 77.2271C111.438 76.5427 111.211 76.0154 110.758 75.6452C110.316 75.2637 109.724 75.073 108.984 75.073C108.575 75.073 108.154 75.1403 107.723 75.275C107.292 75.3984 106.9 75.5779 106.546 75.8135V76.941C106.546 77.7039 106.762 78.2929 107.193 78.708C107.624 79.1232 108.237 79.3307 109.033 79.3307Z" fill="#1C1C1C"/>
<path d="M126.654 81.2155L126.637 74.1642L123.221 79.9702H122.027L118.612 74.2989V81.2155H116.091V69.4353H118.313L122.658 76.7559L126.936 69.4353H129.158L129.174 81.2155H126.654Z" fill="#1C1C1C"/>
<path d="M137.215 69.2334C138.287 69.2334 139.221 69.4466 140.017 69.8729C140.813 70.2992 141.432 70.9275 141.874 71.7577C142.316 72.5879 142.537 73.5921 142.537 74.7701V81.2155H139.851V78.3883H134.545V81.2155H131.892V74.7701C131.892 73.5921 132.113 72.5879 132.555 71.7577C132.997 70.9275 133.616 70.2992 134.412 69.8729C135.208 69.4466 136.142 69.2334 137.215 69.2334ZM139.851 76.2005V74.5177C139.851 73.5416 139.613 72.8067 139.138 72.3131C138.663 71.8082 138.016 71.5558 137.198 71.5558C136.369 71.5558 135.717 71.8082 135.241 72.3131C134.777 72.8067 134.545 73.5416 134.545 74.5177V76.2005H139.851Z" fill="#1C1C1C"/>
<path d="M155.901 69.4353V81.2155H153.214V76.3857H147.941V81.2155H145.255V69.4353H147.941V74.0801H153.214V69.4353H155.901Z" fill="#1C1C1C"/>
<path d="M163.966 69.2334C165.038 69.2334 165.972 69.4466 166.768 69.8729C167.564 70.2992 168.183 70.9275 168.625 71.7577C169.067 72.5879 169.289 73.5921 169.289 74.7701V81.2155H166.602V78.3883H161.296V81.2155H158.643V74.7701C158.643 73.5921 158.864 72.5879 159.306 71.7577C159.748 70.9275 160.368 70.2992 161.163 69.8729C161.959 69.4466 162.894 69.2334 163.966 69.2334ZM166.602 76.2005V74.5177C166.602 73.5416 166.365 72.8067 165.889 72.3131C165.414 71.8082 164.767 71.5558 163.949 71.5558C163.12 71.5558 162.468 71.8082 161.993 72.3131C161.528 72.8067 161.296 73.5416 161.296 74.5177V76.2005H166.602Z" fill="#1C1C1C"/>
<path d="M180.566 72.7338C179.572 72.1504 178.505 71.7746 177.366 71.6063V81.2155H174.68V71.6063C173.541 71.7746 172.469 72.1504 171.463 72.7338L170.551 70.6975C171.347 70.2151 172.209 69.8505 173.138 69.6036C174.066 69.3568 175.023 69.2334 176.006 69.2334C177.001 69.2334 177.963 69.3568 178.892 69.6036C179.831 69.8505 180.694 70.2151 181.478 70.6975L180.566 72.7338Z" fill="#1C1C1C"/>
</g>
<g id="image 16 (Traced)">
<path d="M48.3784 63.0349C48.3277 63.1135 48.2831 63.1644 48.248 63.1865L49.9574 64.9294C49.045 63.9718 48.7046 63.4579 49.235 63.7864C49.3566 63.8617 49.3927 63.7754 49.3194 63.5839C49.1652 63.1814 48.8839 63.1502 48.7353 63.519C48.6758 63.667 48.6179 63.5459 48.6069 63.25C48.5908 62.8215 48.5444 62.7778 48.3784 63.0349Z" fill="#1C1C1C"/>
<path d="M49.674 62.9273C49.9654 63.3253 49.9609 63.3355 49.6132 63.0624C49.4064 62.9 49.2374 62.666 49.2374 62.5425C49.2374 62.419 49.2647 62.3581 49.2982 62.4074C49.3317 62.4568 49.5007 62.6907 49.674 62.9273Z" fill="#1C1C1C"/>
<path d="M50.2038 62.3895C50.4174 62.6262 50.5441 62.8198 50.4851 62.8198C50.426 62.8198 50.2027 62.6262 49.989 62.3895C49.7753 62.1529 49.6486 61.9592 49.7077 61.9592C49.7668 61.9592 49.9901 62.1529 50.2038 62.3895Z" fill="#1C1C1C"/>
<path fill-rule="evenodd" clip-rule="evenodd" d="M49.9574 64.9294L50.5284 65.5116C50.3193 65.3037 50.1283 65.1087 49.9574 64.9294ZM48.1669 63.1038L48.248 63.1865C48.1984 63.2177 48.168 63.1912 48.1669 63.1038Z" fill="#1C1C1C"/>
<path d="M50.8858 62.362C50.7786 62.4059 50.607 62.309 50.5044 62.1468C50.1864 61.6438 50.2922 61.5105 50.6959 61.9054C50.9075 62.1124 50.9929 62.3179 50.8858 62.362Z" fill="#1C1C1C"/>
<path fill-rule="evenodd" clip-rule="evenodd" d="M34.1467 1.67204L32.4873 3.34408V31.3027V59.2614L30.662 61.0987L28.8367 62.936L30.8759 64.9703L32.9153 67.0048L34.4215 65.5075L35.928 64.0099L38.6614 66.7484L41.3951 69.4868L38.6075 72.2858L35.8199 75.0847L27.4979 66.7495L19.1759 58.4144L21.2147 56.3642L23.2533 54.3142V39.7955V25.2766L14.2868 16.2957C9.35524 11.356 5.24824 7.31463 5.1602 7.31463C5.07215 7.31463 5 16.4902 5 27.7046C5 33.4804 5.00389 37.653 5.01881 40.671C5.05054 47.0868 5.13213 48.2838 5.33221 48.57C5.63178 48.9986 5.63178 49.0328 5.33264 48.9179C5.13348 48.8412 5.05472 49.5534 5.03871 54.3832C5.03077 56.7767 5.03825 60.1813 5.05412 65.0021L5.10737 81.2139L10.7416 81.3215L16.3759 81.4291L26.1519 91.2145L35.9277 101L45.788 91.1237L55.648 81.2475L61.1398 81.2948L66.6317 81.3419V44.2755V7.209L57.6124 16.2428L48.5932 25.2766V39.7953V54.3137L50.5733 56.3059L52.5537 58.298L51.5137 59.3559L50.4737 60.4135L51.0597 61.2402L51.6455 62.0668L50.9637 61.3138L50.2817 60.5608L49.2228 61.7054C48.6402 62.3349 48.1652 62.9641 48.1669 63.1038L48.248 63.1865C48.2831 63.1644 48.3277 63.1135 48.3784 63.0349C48.5444 62.7778 48.5908 62.8215 48.6069 63.25C48.6179 63.5459 48.6758 63.667 48.7353 63.519C48.8839 63.1502 49.1652 63.1814 49.3194 63.5839C49.3927 63.7754 49.3566 63.8617 49.235 63.7864C48.7046 63.4579 49.045 63.9718 49.9574 64.9294L50.5284 65.5116L52.0342 67.0085L56.3785 62.6563L60.7228 58.3039L57.557 55.1272L54.3913 51.9502V39.6875V27.4247L57.7198 24.0953L61.0484 20.7658V48.1393V75.5128H58.3093H55.5702L47.4647 67.3903L39.3591 59.2679V31.2963V3.3245L37.6902 1.66236C36.7721 0.748029 35.9726 0 35.9134 0C35.8543 0 35.0591 0.752331 34.1467 1.67204ZM17.4552 51.9502V39.6875V27.4247L14.1266 24.0953L10.7981 20.7658V48.1393V75.5128H13.5389H16.2799L19.2812 72.5003L22.2824 69.4877L16.7036 63.8955L11.1245 58.303L14.2899 55.1267L17.4552 51.9502ZM8.7357 46.8997C8.8435 46.8997 8.75696 46.7061 8.54329 46.4694C8.32962 46.2328 8.12045 46.0392 8.07879 46.0392C8.03692 46.0392 8.12346 46.2328 8.27099 46.4694C8.41852 46.7061 8.62768 46.8997 8.7357 46.8997ZM7.15067 46.8048C7.15561 47.1021 7.53699 47.657 7.6551 47.5384C7.71094 47.4827 7.61946 47.2491 7.45195 47.0195C7.28445 46.7902 7.14895 46.6934 7.15067 46.8048ZM6.95611 47.7159C6.80471 47.5139 6.7433 47.2478 6.81953 47.1243C6.89577 47.0008 6.90972 46.8997 6.85067 46.8997C6.51438 46.8997 6.5088 47.4227 6.84186 47.7271C7.20543 48.0593 7.21316 48.0586 6.95611 47.7159ZM6.1811 47.9754C6.47637 48.3764 6.71796 48.5941 6.71796 48.4594C6.71796 48.2157 5.66399 46.899 5.65111 47.1269C5.64724 47.1925 5.88582 47.5744 6.1811 47.9754ZM6.07909 48.8359C6.19205 48.8359 6.11882 48.6423 5.91653 48.4056C5.71424 48.169 5.51861 47.9754 5.48167 47.9754C5.44452 47.9754 5.51775 48.169 5.64423 48.4056C5.77072 48.6423 5.96635 48.8359 6.07909 48.8359ZM53.7062 60.2381C53.7653 60.2381 53.6386 60.0445 53.4249 59.8079C53.2113 59.5712 52.9879 59.3776 52.9289 59.3776C52.8698 59.3776 52.9965 59.5712 53.2102 59.8079C53.4239 60.0445 53.6472 60.2381 53.7062 60.2381ZM52.7934 60.2381C52.8455 60.2381 52.8881 60.1413 52.8881 60.023C52.8881 59.9047 52.7856 59.8079 52.6606 59.8079C52.5357 59.8079 52.4929 59.9047 52.5659 60.023C52.639 60.1413 52.7412 60.2381 52.7934 60.2381ZM52.0291 60.2919C52.0291 60.6243 52.4004 61.0135 52.5627 60.8511C52.6042 60.8093 52.5011 60.5875 52.3336 60.358C52.0789 60.009 52.0291 59.9983 52.0291 60.2919ZM51.8377 61.2695C51.6863 61.0675 51.6249 60.8014 51.7012 60.6779C51.7774 60.5544 51.7914 60.4533 51.7323 60.4533C51.396 60.4533 51.3904 60.9763 51.7235 61.2807C52.0871 61.6129 52.0948 61.6122 51.8377 61.2695ZM50.5044 62.1468C50.607 62.309 50.7786 62.4059 50.8858 62.362C50.9929 62.3179 50.9075 62.1124 50.6959 61.9054C50.2922 61.5105 50.1864 61.6438 50.5044 62.1468ZM50.4851 62.8198C50.5441 62.8198 50.4174 62.6262 50.2038 62.3895C49.9901 62.1529 49.7668 61.9592 49.7077 61.9592C49.6486 61.9592 49.7753 62.1529 49.989 62.3895C50.2027 62.6262 50.426 62.8198 50.4851 62.8198ZM49.6132 63.0624C49.9609 63.3355 49.9654 63.3253 49.674 62.9273C49.5007 62.6907 49.3317 62.4568 49.2982 62.4074C49.2647 62.3581 49.2374 62.419 49.2374 62.5425C49.2374 62.666 49.4064 62.9 49.6132 63.0624ZM45.4845 73.5749L40.7039 78.3608L35.9232 83.1465L31.1426 78.3608L26.3619 73.5749L23.8969 76.0513L21.4318 78.5277L28.6775 85.7866L35.9232 93.0456L43.1689 85.7866L50.4146 78.5277L47.9496 76.0513L45.4845 73.5749Z" fill="#1C1C1C"/>
<path d="M52.5627 60.8511C52.4004 61.0135 52.0291 60.6243 52.0291 60.2919C52.0291 59.9983 52.0789 60.009 52.3336 60.358C52.5011 60.5875 52.6042 60.8093 52.5627 60.8511Z" fill="#1C1C1C"/>
<path d="M51.7012 60.6779C51.6249 60.8014 51.6863 61.0675 51.8377 61.2695C52.0948 61.6122 52.0871 61.6129 51.7235 61.2807C51.3904 60.9763 51.396 60.4533 51.7323 60.4533C51.7914 60.4533 51.7774 60.5544 51.7012 60.6779Z" fill="#1C1C1C"/>
<path d="M52.8881 60.023C52.8881 60.1413 52.8455 60.2381 52.7934 60.2381C52.7412 60.2381 52.639 60.1413 52.5659 60.023C52.4929 59.9047 52.5357 59.8079 52.6606 59.8079C52.7856 59.8079 52.8881 59.9047 52.8881 60.023Z" fill="#1C1C1C"/>
<path d="M53.4249 59.8079C53.6386 60.0445 53.7653 60.2381 53.7062 60.2381C53.6472 60.2381 53.4239 60.0445 53.2102 59.8079C52.9965 59.5712 52.8698 59.3776 52.9289 59.3776C52.9879 59.3776 53.2113 59.5712 53.4249 59.8079Z" fill="#1C1C1C"/>
<path d="M51.0597 61.2402L50.4737 60.4135L50.2817 60.5608L50.9637 61.3138L51.6455 62.0668L51.0597 61.2402Z" fill="#1C1C1C"/>
<path d="M5.33221 48.57C5.13213 48.2838 5.05054 47.0868 5.01881 40.671L5.03871 54.3832C5.05472 49.5534 5.13348 48.8412 5.33264 48.9179C5.63178 49.0328 5.63178 48.9986 5.33221 48.57Z" fill="#1C1C1C"/>
<path d="M5.91653 48.4056C6.11882 48.6423 6.19205 48.8359 6.07909 48.8359C5.96635 48.8359 5.77072 48.6423 5.64423 48.4056C5.51775 48.169 5.44452 47.9754 5.48167 47.9754C5.51861 47.9754 5.71424 48.169 5.91653 48.4056Z" fill="#1C1C1C"/>
<path d="M6.71796 48.4594C6.71796 48.5941 6.47637 48.3764 6.1811 47.9754C5.88582 47.5744 5.64724 47.1925 5.65111 47.1269C5.66399 46.899 6.71796 48.2157 6.71796 48.4594Z" fill="#1C1C1C"/>
<path d="M6.81953 47.1243C6.7433 47.2478 6.80471 47.5139 6.95611 47.7159C7.21316 48.0586 7.20543 48.0593 6.84186 47.7271C6.5088 47.4227 6.51438 46.8997 6.85067 46.8997C6.90972 46.8997 6.89577 47.0008 6.81953 47.1243Z" fill="#1C1C1C"/>
<path d="M7.6551 47.5384C7.53699 47.657 7.15561 47.1021 7.15067 46.8048C7.14895 46.6934 7.28445 46.7902 7.45195 47.0195C7.61946 47.2491 7.71094 47.4827 7.6551 47.5384Z" fill="#1C1C1C"/>
<path d="M8.54329 46.4694C8.75696 46.7061 8.8435 46.8997 8.7357 46.8997C8.62768 46.8997 8.41852 46.7061 8.27099 46.4694C8.12346 46.2328 8.03692 46.0392 8.07879 46.0392C8.12045 46.0392 8.32962 46.2328 8.54329 46.4694Z" fill="#1C1C1C"/>
</g>
</g>
</g>
</svg>
