<svg width="24" height="25" viewBox="0 0 24 25" fill="none" xmlns="http://www.w3.org/2000/svg">
<path fill-rule="evenodd" clip-rule="evenodd" d="M6.13291 0.974349C6.38648 0.542354 6.82186 0.202184 7.28171 0.0767258C7.4942 0.018777 8.33513 0.00683786 12.3722 0.00441119C16.8946 0.00174186 17.2161 0.00703199 17.3312 0.0861898C17.5563 0.240962 23.741 6.79165 23.7678 6.90376C23.7824 6.96438 23.7883 10.7049 23.781 15.2161L23.7677 23.4182L23.6202 23.7338C23.4545 24.0883 23.1137 24.4626 22.8164 24.6167C22.8018 24.6242 22.7879 24.6315 22.7745 24.6386C22.7472 24.653 22.7217 24.6665 22.6958 24.679C22.3439 24.849 21.9098 24.849 15.5738 24.8493L14.86 24.8494L13.9583 24.8495C7.73562 24.8503 7.29356 24.8504 6.95581 24.6627C6.92999 24.6484 6.90478 24.6329 6.87764 24.6163C6.86122 24.6063 6.84409 24.5958 6.82569 24.5848C6.59429 24.4472 6.27818 24.1239 6.13291 23.8765C5.90035 23.4803 5.88436 23.2877 5.88436 20.8843V18.6377H3.8819H3.85353C2.11213 18.6377 1.71419 18.6377 1.42948 18.4582C1.34515 18.405 1.27074 18.336 1.1743 18.2467L1.16894 18.2417C0.981679 18.0683 0.882519 17.9278 0.811512 17.7355C0.715463 17.4752 0.713261 17.383 0.713261 13.6213L0.713193 13.072C0.71261 9.97817 0.712529 9.55214 0.914301 9.27095C0.946522 9.22605 0.983891 9.18484 1.02723 9.13705C1.04252 9.12018 1.05856 9.10249 1.07538 9.08353C1.20001 8.94298 1.38747 8.80019 1.53781 8.73137C1.78971 8.61596 1.79752 8.61553 3.83747 8.60101L5.88436 8.5865V5.15321C5.88436 1.46512 5.88881 1.39028 6.13291 0.974349ZM16.2744 7.36473V4.16818V0.971582L11.9293 0.97265C7.8072 0.973669 7.57431 0.978329 7.3926 1.06331C7.16081 1.17173 7.01492 1.32539 6.91609 1.56524C6.85155 1.72171 6.84197 2.18821 6.84197 5.16816V8.59131H10.8855C13.564 8.59131 15.0093 8.60873 15.1668 8.643C15.4649 8.70779 15.8058 8.95041 16.0122 9.24466C16.278 9.62356 16.2833 9.72005 16.2661 13.8329C16.2506 17.5239 16.2499 17.5471 16.1466 17.7736C15.997 18.1018 15.6719 18.4109 15.3465 18.5343C15.076 18.6369 15.0407 18.6377 10.9579 18.6377H6.84197L6.84303 20.8824C6.84398 22.9551 6.85078 23.142 6.93199 23.3232C7.03862 23.5611 7.26356 23.7616 7.50248 23.8316C7.62616 23.8679 9.8854 23.8793 14.9612 23.8693L22.2426 23.855L22.411 23.7381C22.5036 23.6738 22.6313 23.5443 22.6947 23.4505L22.8101 23.2798L22.8225 15.4744L22.8349 7.66918H19.824C18.168 7.66918 16.7461 7.65559 16.6641 7.63899C16.5822 7.62239 16.461 7.55386 16.3948 7.48674L16.2744 7.36473ZM22.3067 6.67424L19.7977 4.03068C18.4178 2.57668 17.2652 1.37912 17.2365 1.36941C17.1555 1.34209 17.1631 6.64483 17.244 6.67623C17.277 6.68905 18.4295 6.6938 19.8053 6.68686L22.3067 6.67424ZM15.0435 9.62254C15.0354 9.61977 15.0271 9.61693 15.0185 9.6139C14.8376 9.54999 2.08341 9.5463 1.92737 9.61012C1.91701 9.61435 1.90708 9.61817 1.89754 9.62183C1.87171 9.63176 1.84882 9.64055 1.82853 9.65344C1.67047 9.75389 1.67051 10.1031 1.67084 13.1732L1.67087 13.629V17.3833L1.81083 17.5252L1.95078 17.667H8.4679C8.93702 17.667 9.37339 17.6671 9.77932 17.6672H9.78006C14.6786 17.6683 15.143 17.6684 15.2297 17.4875C15.2388 17.4686 15.2437 17.4477 15.2491 17.4245C15.2534 17.4062 15.2581 17.3866 15.2654 17.3654C15.3003 17.2639 15.3168 16.0538 15.3168 13.6025L15.3168 13.2773C15.317 10.1765 15.3171 9.77573 15.1364 9.66207C15.1096 9.6452 15.0788 9.63465 15.0435 9.62254Z" fill="#1C1C1C"/>
<path d="M4.5001 11.8942C4.98282 11.8942 5.3626 12.0095 5.63946 12.2402C5.91631 12.4709 6.05473 12.7886 6.05473 13.1932C6.05473 13.5979 5.91631 13.9155 5.63946 14.1462C5.3626 14.3769 4.98282 14.4923 4.5001 14.4923H3.57904V15.621H3.04663V11.8942H4.5001ZM4.48413 14.0291C4.82132 14.0291 5.07865 13.9581 5.25612 13.8161C5.43359 13.6706 5.52233 13.463 5.52233 13.1932C5.52233 12.9235 5.43359 12.7176 5.25612 12.5756C5.07865 12.4301 4.82132 12.3573 4.48413 12.3573H3.57904V14.0291H4.48413Z" fill="#1C1C1C"/>
<path d="M6.83691 11.8942H8.40752C8.8015 11.8942 9.15111 11.9722 9.45636 12.1284C9.76161 12.2846 9.99764 12.5046 10.1645 12.7886C10.3348 13.069 10.42 13.392 10.42 13.7576C10.42 14.1232 10.3348 14.4479 10.1645 14.7319C9.99764 15.0123 9.76161 15.2306 9.45636 15.3867C9.15111 15.5429 8.8015 15.621 8.40752 15.621H6.83691V11.8942ZM8.37557 15.1578C8.67727 15.1578 8.9417 15.0992 9.16886 14.9821C9.39957 14.865 9.57704 14.7017 9.70127 14.4923C9.82549 14.2793 9.88761 14.0344 9.88761 13.7576C9.88761 13.4807 9.82549 13.2376 9.70127 13.0282C9.57704 12.8152 9.39957 12.6502 9.16886 12.533C8.9417 12.4159 8.67727 12.3573 8.37557 12.3573H7.36932V15.1578H8.37557Z" fill="#1C1C1C"/>
<path d="M12.7635 12.3254C12.4228 12.3254 12.1655 12.4035 11.9915 12.5597C11.8212 12.7123 11.736 12.9359 11.736 13.2305V13.6564H13.4397V14.1143H11.736V15.621H11.2036V13.2252C11.2036 12.7957 11.3384 12.4603 11.6082 12.2189C11.8815 11.974 12.2613 11.8516 12.7476 11.8516C12.9605 11.8516 13.1593 11.8764 13.3438 11.9261C13.5284 11.9722 13.6881 12.0415 13.823 12.1337L13.6473 12.5756C13.4095 12.4088 13.1149 12.3254 12.7635 12.3254Z" fill="#1C1C1C"/>
</svg>
