<svg width="31" height="26" viewBox="0 0 31 26" fill="none" xmlns="http://www.w3.org/2000/svg">
<path fill-rule="evenodd" clip-rule="evenodd" d="M12.7808 1.89329C13.0343 1.4613 13.4697 1.12113 13.9296 0.995671C14.1421 0.937722 14.983 0.925783 19.02 0.923357C23.5425 0.920687 23.864 0.925977 23.979 1.00514C24.2042 1.15991 30.3889 7.71059 30.4157 7.8227C30.4302 7.88332 30.4362 11.6239 30.4289 16.135L30.4156 24.3372L30.268 24.6528C30.1023 25.0072 29.7615 25.3816 29.4642 25.5356C29.4496 25.5432 29.4358 25.5505 29.4224 25.5576C29.395 25.572 29.3696 25.5854 29.3437 25.5979C28.9918 25.768 28.5577 25.768 22.2216 25.7683L21.5079 25.7683L20.6062 25.7684C14.3835 25.7693 13.9414 25.7694 13.6037 25.5817C13.5779 25.5673 13.5526 25.5519 13.5255 25.5353C13.5091 25.5252 13.492 25.5147 13.4736 25.5038C13.2422 25.3661 12.926 25.0429 12.7808 24.7955C12.5482 24.3992 12.5322 24.2067 12.5322 21.8032V19.5566V18.586H13.4898V19.5566L13.4909 21.8013C13.4918 23.8741 13.4986 24.061 13.5799 24.2421C13.6865 24.4801 13.9114 24.6805 14.1503 24.7506C14.274 24.7868 16.5333 24.7982 21.6091 24.7883L28.8905 24.774L29.0589 24.657C29.1515 24.5927 29.2792 24.4633 29.3426 24.3694L29.458 24.1987L29.4704 16.3934L29.4828 8.58812H26.4719C24.8159 8.58812 23.3939 8.57453 23.312 8.55793C23.2301 8.54133 23.1089 8.47281 23.0427 8.40568L22.9223 8.28367V5.08712V1.89053L18.5771 1.8916C14.4551 1.89261 14.2222 1.89727 14.0405 1.98226C13.8087 2.09068 13.6628 2.24434 13.564 2.48419C13.4994 2.64066 13.4898 3.10716 13.4898 6.0871V9.51025V10.484C13.1637 10.4844 12.8433 10.4851 12.5322 10.4859V9.50545V6.07216C12.5322 2.38406 12.5367 2.30922 12.7808 1.89329ZM28.9546 7.59319L26.4456 4.94963C25.0656 3.49562 23.9131 2.29806 23.8843 2.28836C23.8034 2.26103 23.811 7.56378 23.8919 7.59518C23.9248 7.60799 25.0774 7.61275 26.4532 7.60581L28.9546 7.59319Z" fill="#1C1C1C"/>
<path d="M8.09735 16.0768V17.3545H7.60221V16.54H4.46633L4.46101 17.3545H3.97119L3.97652 16.0768H4.43439V14.405C4.43439 13.8797 4.57814 13.4768 4.86564 13.1964C5.15314 12.9125 5.54179 12.7705 6.03161 12.7705C6.52497 12.7705 6.9154 12.9125 7.2029 13.1964C7.49395 13.4768 7.63948 13.8797 7.63948 14.405V16.0768H8.09735ZM7.10175 16.0768V14.3518C7.10175 13.9897 7.00769 13.7164 6.81957 13.5319C6.635 13.3437 6.37235 13.2497 6.03161 13.2497C5.69442 13.2497 5.43176 13.3437 5.24365 13.5319C5.05553 13.7164 4.96147 13.9897 4.96147 14.3518V16.0768H7.10175Z" fill="#1C1C1C"/>
<path d="M10.2799 12.7812C10.7697 12.7812 11.153 12.9072 11.4299 13.1592C11.7067 13.4112 11.8452 13.759 11.8452 14.2027C11.8452 14.6322 11.7174 14.9694 11.4618 15.2143C11.2063 15.4556 10.8549 15.5763 10.4077 15.5763C10.2124 15.5763 10.0243 15.5514 9.84331 15.5018C9.66229 15.4521 9.4724 15.3722 9.27364 15.2622V16.54H8.75188V14.2772C8.75188 13.8016 8.88498 13.4342 9.15118 13.1751C9.41739 12.9125 9.79362 12.7812 10.2799 12.7812ZM10.3172 15.145C10.626 15.145 10.8691 15.0634 11.0466 14.9001C11.224 14.7333 11.3128 14.5044 11.3128 14.2133C11.3128 13.9152 11.2222 13.6827 11.0412 13.5159C10.8602 13.3455 10.6118 13.2603 10.2959 13.2603C9.97287 13.2603 9.72086 13.3491 9.53984 13.5265C9.36237 13.7004 9.27364 13.9489 9.27364 14.2719V14.7724C9.41916 14.893 9.58066 14.9853 9.75813 15.0492C9.9356 15.1131 10.1219 15.145 10.3172 15.145Z" fill="#1C1C1C"/>
<path d="M15.7413 12.8131V15.4325C15.7413 15.9721 15.5976 16.3856 15.3101 16.6731C15.0226 16.9606 14.625 17.1043 14.1175 17.1043C13.8122 17.1043 13.5336 17.0564 13.2816 16.9606C13.0331 16.8683 12.8237 16.7352 12.6533 16.5612L12.8823 16.146C13.2088 16.4654 13.6205 16.6251 14.1175 16.6251C14.8486 16.6251 15.2142 16.2347 15.2142 15.4538V15.0758C14.9658 15.4379 14.5807 15.6189 14.0589 15.6189C13.5904 15.6189 13.2266 15.484 12.9675 15.2143C12.7084 14.9445 12.5788 14.5594 12.5788 14.0589V12.8131H13.1112V14.0376C13.1112 14.3997 13.1999 14.6748 13.3774 14.8629C13.5549 15.051 13.8016 15.145 14.1175 15.145C14.4582 15.145 14.7262 15.0457 14.9214 14.8469C15.1166 14.6481 15.2142 14.3518 15.2142 13.9578V12.8131H15.7413Z" fill="#1C1C1C"/>
<path d="M18.1484 14.9001H17.3711V16.54H16.8493V12.8131H17.3711V14.4316H18.159L19.3303 12.8131H19.9L18.569 14.618L19.9639 16.54H19.3569L18.1484 14.9001Z" fill="#1C1C1C"/>
<rect x="1.47217" y="9.94141" width="21.0062" height="8.93827" rx="2.5" stroke="#1C1C1C"/>
</svg>
