<svg width="24" height="25" viewBox="0 0 24 25" fill="none" xmlns="http://www.w3.org/2000/svg">
<path fill-rule="evenodd" clip-rule="evenodd" d="M5.58628 0.974349C5.83985 0.542354 6.27523 0.202184 6.73508 0.0767258C6.94757 0.018777 7.7885 0.00683786 11.8255 0.00441119C16.348 0.00174186 16.6695 0.00703199 16.7845 0.0861898C17.0097 0.240962 23.1944 6.79165 23.2212 6.90376C23.2357 6.96438 23.2417 10.7049 23.2344 15.2161L23.2211 23.4182L23.0736 23.7338C22.9078 24.0883 22.567 24.4626 22.2697 24.6167C22.2551 24.6242 22.2413 24.6315 22.2279 24.6386C22.2005 24.653 22.1751 24.6665 22.1492 24.679C21.7973 24.849 21.3632 24.849 15.0271 24.8493L14.3134 24.8494L13.4117 24.8495C7.18899 24.8503 6.74693 24.8504 6.40918 24.6627C6.38336 24.6484 6.35815 24.6329 6.33101 24.6163C6.31459 24.6063 6.29746 24.5958 6.27906 24.5848C6.04766 24.4472 5.73155 24.1239 5.58628 23.8765C5.35372 23.4803 5.33773 23.2877 5.33773 20.8843V18.6377H3.33527H3.3069C1.5655 18.6377 1.16756 18.6377 0.88285 18.4582C0.798515 18.405 0.724113 18.336 0.627672 18.2467L0.622309 18.2417C0.435048 18.0683 0.335888 17.9278 0.264881 17.7355C0.168833 17.4752 0.16663 17.383 0.16663 13.6213L0.166563 13.072C0.165979 9.97817 0.165898 9.55214 0.36767 9.27095C0.399891 9.22605 0.43726 9.18484 0.480597 9.13705C0.495893 9.12018 0.511932 9.10249 0.528751 9.08353C0.653384 8.94298 0.840836 8.80019 0.991181 8.73137C1.24308 8.61596 1.25089 8.61553 3.29084 8.60101L5.33773 8.5865V5.15321C5.33773 1.46512 5.34218 1.39028 5.58628 0.974349ZM15.7278 7.36473V4.16818V0.971582L11.3827 0.97265C7.26057 0.973669 7.02767 0.978329 6.84597 1.06331C6.61418 1.17173 6.46829 1.32539 6.36946 1.56524C6.30492 1.72171 6.29534 2.18821 6.29534 5.16816V8.59131H10.3389C13.0174 8.59131 14.4627 8.60873 14.6201 8.643C14.9183 8.70779 15.2592 8.95041 15.4656 9.24466C15.7314 9.62356 15.7367 9.72005 15.7194 13.8329C15.704 17.5239 15.7032 17.5471 15.6 17.7736C15.4503 18.1018 15.1253 18.4109 14.7998 18.5343C14.5294 18.6369 14.494 18.6377 10.4113 18.6377H6.29534L6.2964 20.8824C6.29735 22.9551 6.30415 23.142 6.38536 23.3232C6.49199 23.5611 6.71693 23.7616 6.95585 23.8316C7.07953 23.8679 9.33877 23.8793 14.4146 23.8693L21.696 23.855L21.8644 23.7381C21.957 23.6738 22.0847 23.5443 22.1481 23.4505L22.2635 23.2798L22.2759 15.4744L22.2883 7.66918H19.2774C17.6214 7.66918 16.1994 7.65559 16.1175 7.63899C16.0356 7.62239 15.9144 7.55386 15.8482 7.48674L15.7278 7.36473ZM21.7601 6.67424L19.2511 4.03068C17.8711 2.57668 16.7186 1.37912 16.6898 1.36941C16.6089 1.34209 16.6165 6.64483 16.6974 6.67623C16.7303 6.68905 17.8829 6.6938 19.2587 6.68686L21.7601 6.67424ZM14.4968 9.62254C14.4888 9.61977 14.4805 9.61693 14.4719 9.6139C14.291 9.54999 1.53678 9.5463 1.38074 9.61012C1.37038 9.61435 1.36045 9.61817 1.35091 9.62183C1.32508 9.63176 1.30219 9.64055 1.2819 9.65344C1.12384 9.75389 1.12388 10.1031 1.12421 13.1732L1.12424 13.629V17.3833L1.2642 17.5252L1.40415 17.667H7.92127C8.39039 17.667 8.82676 17.6671 9.23269 17.6672H9.23343C14.132 17.6683 14.5964 17.6684 14.683 17.4875C14.6921 17.4686 14.6971 17.4477 14.7025 17.4245C14.7068 17.4062 14.7115 17.3866 14.7187 17.3654C14.7536 17.2639 14.7702 16.0538 14.7702 13.6025L14.7702 13.2773C14.7704 10.1765 14.7704 9.77573 14.5898 9.66207C14.563 9.6452 14.5322 9.63465 14.4968 9.62254Z" fill="#1C1C1C"/>
<path d="M5.70187 15.621L4.89794 14.4763C4.79855 14.4834 4.72047 14.487 4.66368 14.487H3.74261V15.621H3.21021V11.8942H4.66368C5.14639 11.8942 5.52618 12.0095 5.80303 12.2402C6.07988 12.4709 6.21831 12.7886 6.21831 13.1932C6.21831 13.4807 6.14732 13.7256 6.00534 13.928C5.86337 14.1303 5.66105 14.2776 5.3984 14.3698L6.2822 15.621H5.70187ZM4.64771 14.0344C4.9849 14.0344 5.24223 13.9617 5.4197 13.8161C5.59717 13.6706 5.6859 13.463 5.6859 13.1932C5.6859 12.9235 5.59717 12.7176 5.4197 12.5756C5.24223 12.4301 4.9849 12.3573 4.64771 12.3573H3.74261V14.0344H4.64771Z" fill="#1C1C1C"/>
<path d="M9.5382 12.6981C9.17616 12.4922 8.78928 12.3698 8.37755 12.3307V15.621H7.85047V12.3307C7.43519 12.3698 7.04653 12.4922 6.6845 12.6981L6.49815 12.2775C6.97377 11.9935 7.50973 11.8516 8.10602 11.8516C8.70942 11.8516 9.24893 11.9935 9.72454 12.2775L9.5382 12.6981Z" fill="#1C1C1C"/>
<path d="M11.7365 12.3254C11.3957 12.3254 11.1384 12.4035 10.9645 12.5597C10.7941 12.7123 10.7089 12.9359 10.7089 13.2305V13.6564H12.4126V14.1143H10.7089V15.621H10.1765V13.2252C10.1765 12.7957 10.3114 12.4603 10.5811 12.2189C10.8544 11.974 11.2342 11.8516 11.7205 11.8516C11.9335 11.8516 12.1322 11.8764 12.3168 11.9261C12.5014 11.9722 12.6611 12.0415 12.796 12.1337L12.6203 12.5756C12.3824 12.4088 12.0879 12.3254 11.7365 12.3254Z" fill="#1C1C1C"/>
</svg>
