<svg width="27" height="26" viewBox="0 0 27 26" fill="none" xmlns="http://www.w3.org/2000/svg">
<path fill-rule="evenodd" clip-rule="evenodd" d="M11.7092 0.0324815C8.64927 0.370706 5.93036 1.66829 3.79903 3.8075C1.78727 5.82673 0.550489 8.29226 0.1082 11.1651C-0.0184884 11.9879 -0.0184884 14.0025 0.1082 14.8254C0.407075 16.7668 1.06863 18.5242 2.08066 20.0655C4.30466 23.4526 7.82803 25.5826 11.8363 25.963C12.6112 26.0366 14.1347 25.9957 14.8866 25.8812C17.2249 25.525 19.384 24.5742 21.2252 23.0897C22.8729 21.7613 24.3315 19.7716 25.1017 17.8017C26.0601 15.3505 26.2772 12.6191 25.7101 10.1483C25.1495 7.70631 23.9619 5.555 22.2038 3.79697C20.2034 1.79661 17.7337 0.551282 14.8866 0.107315C14.2627 0.0100111 12.325 -0.0355904 11.7092 0.0324815ZM19.0753 7.88683C19.3027 7.99476 19.4111 8.20325 19.4111 8.53267C19.4111 8.82677 17.2802 18.9673 17.1558 19.2649C17.0019 19.6333 16.5902 19.7629 16.2064 19.5637C16.1096 19.5134 15.3112 18.9406 14.4322 18.2907L12.834 17.1091L12.475 17.4561C11.1561 18.7304 10.9857 18.8813 10.8258 18.9165C10.7345 18.9365 10.6496 18.9428 10.6372 18.9304C10.6248 18.918 10.6654 18.1723 10.7276 17.2734L10.8405 15.639L13.8167 12.9506C15.4537 11.4719 16.8353 10.2151 16.8869 10.1576C17.0097 10.021 16.9484 9.93051 16.7489 9.95385C16.6474 9.96569 15.2214 10.834 12.8169 12.3481C10.7419 13.6547 9.02242 14.7237 8.99578 14.7237C8.88968 14.7237 5.65049 13.6912 5.52401 13.6171C5.17109 13.4102 5.25431 13.0583 5.71033 12.8292C5.79421 12.787 7.86458 11.9806 10.3112 11.0372C12.7577 10.0937 15.6402 8.98213 16.7167 8.56699C17.7932 8.15185 18.7277 7.81164 18.7934 7.81098C18.8591 7.81032 18.9859 7.84443 19.0753 7.88683Z" fill="#4753DC"/>
</svg>
